


    <svg
      xmlns="http://www.w3.org/2000/svg"
      width="512"
      height="512"
      version="1.1"
      viewBox="0 0 512 512"
    >
      <g
        fill="#0ff"
        fillRule="nonzero"
        strokeWidth="19.93"
        transform="matrix(-.42817 0 0 -.42817 569.246 115.458)"
      >
        <path d="M388.46 137.159l17.418 4.463c1.879.528 3.914.056 5.318-1.232 1.403-1.289 1.955-3.192 1.44-4.973-.514-1.78-2.013-3.159-3.916-3.602l-14.44-3.7 3.889-13.875c.491-1.756-.051-3.626-1.42-4.905-1.37-1.28-3.36-1.774-5.223-1.297-1.863.477-3.313 1.853-3.805 3.61l-4.684 16.74-18.957 10.443v-21.068l12.804-12.252c1.444-1.277 2.03-3.196 1.525-5-.505-1.804-2.019-3.202-3.945-3.644-1.925-.442-3.953.144-5.284 1.527l-10.502 10.035-10.502-10.035c-1.33-1.383-3.358-1.97-5.284-1.527-1.926.442-3.44 1.84-3.945 3.644-.504 1.804.086 3.723 1.526 5l12.803 12.252v21.068l-18.957-10.442-4.683-16.721c-.492-1.757-1.943-3.132-3.805-3.61-1.863-.477-3.854.018-5.224 1.297-1.37 1.28-1.912 3.15-1.42 4.906l3.89 13.874-14.44 3.7c-1.904.443-3.403 1.822-3.917 3.603-.514 1.78.037 3.684 1.44 4.972 1.404 1.289 3.44 1.76 5.319 1.233l17.416-4.464 19.103 10.529-19.103 10.549-17.416-4.449c-1.88-.528-3.915-.055-5.318 1.233-1.404 1.288-1.955 3.191-1.441 4.972.515 1.78 2.013 3.16 3.917 3.602l14.44 3.701-3.89 13.874a4.82 4.82 0 00.557 3.856c.721 1.165 1.905 2.013 3.29 2.357.451.112.916.169 1.383.168 2.451-.002 4.594-1.558 5.219-3.788l4.684-16.72 18.956-10.479v21.068l-12.803 12.252c-1.445 1.277-2.03 3.196-1.526 5 .506 1.804 2.02 3.203 3.945 3.645 1.926.441 3.954-.145 5.284-1.527l10.502-10.036 10.502 10.036c1.33 1.382 3.359 1.968 5.285 1.527 1.925-.442 3.44-1.841 3.944-3.645s-.085-3.723-1.525-5l-12.803-12.252v-21.068l18.956 10.442 4.684 16.721c.625 2.23 2.767 3.786 5.219 3.788.466 0 .931-.056 1.383-.168 1.385-.344 2.569-1.191 3.29-2.356a4.825 4.825 0 00.556-3.856l-3.89-13.874 14.441-3.701c1.904-.443 3.403-1.822 3.917-3.603.515-1.78-.034-3.683-1.44-4.972-1.404-1.288-3.44-1.76-5.318-1.232l-17.417 4.463-19.103-10.528z"></path>
        <path d="M478.402 123.42l12.296 3.349a3.815 3.815 0 102.007-7.358l-10.196-2.776 2.747-10.409a3.814 3.814 0 10-7.377-1.945l-3.307 12.56-13.383 7.834v-15.806l9.04-9.192a3.814 3.814 0 10-5.44-5.34l-7.414 7.53-7.415-7.53a3.814 3.814 0 10-5.439 5.34l9.04 9.192v15.806l-13.384-7.834-3.307-12.545a3.814 3.814 0 10-7.376 1.945l2.746 10.409-10.195 2.776a3.814 3.814 0 102.006 7.358l12.297-3.349 13.486 7.899-13.486 7.914-12.297-3.337a3.815 3.815 0 10-2.006 7.357l10.195 2.777-2.746 10.408a3.81 3.81 0 002.716 4.661 3.814 3.814 0 004.66-2.716l3.307-12.544 13.384-7.86v15.805l-9.04 9.192a3.814 3.814 0 105.44 5.34l7.414-7.53 7.414 7.53a3.814 3.814 0 105.44-5.34l-9.04-9.192v-15.806l13.383 7.834 3.307 12.545a3.814 3.814 0 107.377-1.945l-2.746-10.409 10.195-2.776a3.814 3.814 0 10-2.007-7.358l-12.296 3.349-13.487-7.899z"></path>
        <path d="M411.998 32.455l12.296 3.35a3.815 3.815 0 102.006-7.358l-10.195-2.777 2.747-10.408a3.814 3.814 0 10-7.377-1.946l-3.307 12.56-13.383 7.834V17.905l9.04-9.192a3.814 3.814 0 10-5.44-5.34l-7.414 7.529-7.415-7.529a3.814 3.814 0 10-5.439 5.34l9.04 9.192V33.71l-13.384-7.834-3.307-12.544a3.814 3.814 0 10-7.376 1.945l2.746 10.408-10.195 2.777a3.814 3.814 0 102.006 7.357l12.297-3.348 13.486 7.899-13.486 7.914-12.297-3.338a3.815 3.815 0 10-2.006 7.358l10.195 2.776-2.746 10.409a3.81 3.81 0 002.716 4.66 3.814 3.814 0 004.66-2.716l3.307-12.543 13.384-7.861v15.805l-9.04 9.192a3.814 3.814 0 105.44 5.34l7.414-7.529 7.414 7.529a3.814 3.814 0 105.44-5.34l-9.04-9.192V47.03l13.383 7.834 3.307 12.544a3.814 3.814 0 107.377-1.945l-2.746-10.408 10.195-2.777a3.814 3.814 0 10-2.007-7.357l-12.296 3.348-13.487-7.898z"></path>
        <path d="M493.956 51.309l7.03 1.914a2.18 2.18 0 101.148-4.206l-5.829-1.587 1.57-5.95a2.18 2.18 0 10-4.217-1.112l-1.89 7.18-7.652 4.478V42.99l5.168-5.255a2.18 2.18 0 10-3.11-3.052l-4.238 4.304-4.24-4.304a2.18 2.18 0 10-3.108 3.052l5.167 5.255v9.036l-7.65-4.478-1.891-7.172a2.181 2.181 0 00-4.217 1.112l1.57 5.95-5.829 1.588a2.181 2.181 0 101.147 4.206l7.03-1.914 7.71 4.515-7.71 4.525-7.03-1.908a2.18 2.18 0 10-1.147 4.206l5.829 1.588-1.57 5.95a2.18 2.18 0 104.217 1.112l1.89-7.171 7.652-4.494v9.036l-5.168 5.255a2.18 2.18 0 103.11 3.052l4.238-4.304 4.24 4.304a2.18 2.18 0 103.109-3.052l-5.168-5.255V59.64l7.651 4.478 1.891 7.172a2.18 2.18 0 004.217-1.112l-1.57-5.95 5.828-1.588a2.181 2.181 0 10-1.146-4.206l-7.03 1.914-7.71-4.516z"></path>
      </g>
      <g
        strokeWidth="0.811"
        transform="matrix(1.23243 0 0 1.23243 -60.432 -59.502)"
      > 
        <g
        fill="#000"
        stroke="transparent"
        >
        <path d="M424.981 282.936V60.716a6.734 6.734 0 00-6.734-6.734H270.101a6.732 6.732 0 00-3.012.711l-10.456 5.228-10.456-5.228a6.732 6.732 0 00-3.012-.71H101.753a6.734 6.734 0 00-6.734 6.733v222.22a6.733 6.733 0 00.71 3.012l5.229 10.456-5.228 10.456a6.733 6.733 0 00-.711 3.011v121.211a6.734 6.734 0 006.734 6.734H117.1l5.2 15.598a6.734 6.734 0 006.388 4.604h20.201a6.734 6.734 0 006.389-4.604l5.199-15.598h199.044l5.2 15.598a6.734 6.734 0 006.388 4.604h20.202a6.734 6.734 0 006.388-4.604l5.199-15.598h15.348a6.734 6.734 0 006.734-6.734v-121.21a6.733 6.733 0 00-.71-3.012l-5.229-10.456 5.228-10.456a6.733 6.733 0 00.711-3.012zm-90.15 20.201l-2.244 6.734H180.68l-2.245-6.734zM263.367 96.995l6.734 2.244v158.642l-6.734 2.244zm-13.468 163.13l-6.734-2.244V99.239l6.734-2.244zM108.487 67.45h133.088l8.324 4.162v11.186l-15.597 5.2a6.735 6.735 0 00-4.605 6.388v168.348a6.735 6.735 0 004.605 6.389l15.597 5.199v15.348H112.65l-4.162-8.324zm35.55 377.1h-10.495l-2.245-6.734h14.984zm242.42 0h-10.494l-2.244-6.734h14.984zm25.056-20.202H108.487V311.461l4.162-8.324h51.59l5.199 15.598a6.734 6.734 0 006.388 4.604H337.44a6.734 6.734 0 006.388-4.604l5.2-15.598h58.323l4.162 8.324zm0-143.002l-4.162 8.324H263.367v-15.348l15.597-5.2a6.735 6.735 0 004.605-6.388V94.386a6.735 6.735 0 00-4.605-6.389l-15.597-5.199V71.612l8.324-4.162h139.822z"></path>
        <path d="M135.422 269.468h67.34a6.734 6.734 0 006.734-6.734v-67.34a6.734 6.734 0 00-6.734-6.733h-67.34a6.734 6.734 0 00-6.733 6.734v67.339a6.734 6.734 0 006.733 6.734zM142.156 256v-26.936h20.202v13.468h13.468v-13.468h20.202V256zm53.872-53.871v13.467h-53.872V202.13z"></path>
        <path d="M135.422 175.193h67.34a6.734 6.734 0 006.734-6.734v-53.871a6.734 6.734 0 00-6.734-6.734h-67.34a6.734 6.734 0 00-6.733 6.734v53.871a6.734 6.734 0 006.733 6.734zm6.734-53.871h53.872v40.403h-53.872z" ></path>
        <path d="M147.886 128.864H190.29899999999998V133.3H147.886z"></path>
        <path d="M146.111 205.059H153.147V212.095H146.111z"></path>
        <path d="M357.642 262.734H402.503V276.202H357.642z"></path>
        <path d="M156.402 205.059H163.438V212.095H156.402z"></path>
        </g>
      </g>
      
      <g
        fill="#0ff"
        fillRule="nonzero"
        strokeWidth="19.93"
        transform="matrix(.42817 0 0 .42817 -54.082 371.024)"
      >
        <path d="M388.46 137.159l17.418 4.463c1.879.528 3.914.056 5.318-1.232 1.403-1.289 1.955-3.192 1.44-4.973-.514-1.78-2.013-3.159-3.916-3.602l-14.44-3.7 3.889-13.875c.491-1.756-.051-3.626-1.42-4.905-1.37-1.28-3.36-1.774-5.223-1.297-1.863.477-3.313 1.853-3.805 3.61l-4.684 16.74-18.957 10.443v-21.068l12.804-12.252c1.444-1.277 2.03-3.196 1.525-5-.505-1.804-2.019-3.202-3.945-3.644-1.925-.442-3.953.144-5.284 1.527l-10.502 10.035-10.502-10.035c-1.33-1.383-3.358-1.97-5.284-1.527-1.926.442-3.44 1.84-3.945 3.644-.504 1.804.086 3.723 1.526 5l12.803 12.252v21.068l-18.957-10.442-4.683-16.721c-.492-1.757-1.943-3.132-3.805-3.61-1.863-.477-3.854.018-5.224 1.297-1.37 1.28-1.912 3.15-1.42 4.906l3.89 13.874-14.44 3.7c-1.904.443-3.403 1.822-3.917 3.603-.514 1.78.037 3.684 1.44 4.972 1.404 1.289 3.44 1.76 5.319 1.233l17.416-4.464 19.103 10.529-19.103 10.549-17.416-4.449c-1.88-.528-3.915-.055-5.318 1.233-1.404 1.288-1.955 3.191-1.441 4.972.515 1.78 2.013 3.16 3.917 3.602l14.44 3.701-3.89 13.874a4.82 4.82 0 00.557 3.856c.721 1.165 1.905 2.013 3.29 2.357.451.112.916.169 1.383.168 2.451-.002 4.594-1.558 5.219-3.788l4.684-16.72 18.956-10.479v21.068l-12.803 12.252c-1.445 1.277-2.03 3.196-1.526 5 .506 1.804 2.02 3.203 3.945 3.645 1.926.441 3.954-.145 5.284-1.527l10.502-10.036 10.502 10.036c1.33 1.382 3.359 1.968 5.285 1.527 1.925-.442 3.44-1.841 3.944-3.645s-.085-3.723-1.525-5l-12.803-12.252v-21.068l18.956 10.442 4.684 16.721c.625 2.23 2.767 3.786 5.219 3.788.466 0 .931-.056 1.383-.168 1.385-.344 2.569-1.191 3.29-2.356a4.825 4.825 0 00.556-3.856l-3.89-13.874 14.441-3.701c1.904-.443 3.403-1.822 3.917-3.603.515-1.78-.034-3.683-1.44-4.972-1.404-1.288-3.44-1.76-5.318-1.232l-17.417 4.463-19.103-10.528z"></path>
        <path d="M478.402 123.42l12.296 3.349a3.815 3.815 0 102.007-7.358l-10.196-2.776 2.747-10.409a3.814 3.814 0 10-7.377-1.945l-3.307 12.56-13.383 7.834v-15.806l9.04-9.192a3.814 3.814 0 10-5.44-5.34l-7.414 7.53-7.415-7.53a3.814 3.814 0 10-5.439 5.34l9.04 9.192v15.806l-13.384-7.834-3.307-12.545a3.814 3.814 0 10-7.376 1.945l2.746 10.409-10.195 2.776a3.814 3.814 0 102.006 7.358l12.297-3.349 13.486 7.899-13.486 7.914-12.297-3.337a3.815 3.815 0 10-2.006 7.357l10.195 2.777-2.746 10.408a3.81 3.81 0 002.716 4.661 3.814 3.814 0 004.66-2.716l3.307-12.544 13.384-7.86v15.805l-9.04 9.192a3.814 3.814 0 105.44 5.34l7.414-7.53 7.414 7.53a3.814 3.814 0 105.44-5.34l-9.04-9.192v-15.806l13.383 7.834 3.307 12.545a3.814 3.814 0 107.377-1.945l-2.746-10.409 10.195-2.776a3.814 3.814 0 10-2.007-7.358l-12.296 3.349-13.487-7.899z"></path>
        <path d="M411.998 32.455l12.296 3.35a3.815 3.815 0 102.006-7.358l-10.195-2.777 2.747-10.408a3.814 3.814 0 10-7.377-1.946l-3.307 12.56-13.383 7.834V17.905l9.04-9.192a3.814 3.814 0 10-5.44-5.34l-7.414 7.529-7.415-7.529a3.814 3.814 0 10-5.439 5.34l9.04 9.192V33.71l-13.384-7.834-3.307-12.544a3.814 3.814 0 10-7.376 1.945l2.746 10.408-10.195 2.777a3.814 3.814 0 102.006 7.357l12.297-3.348 13.486 7.899-13.486 7.914-12.297-3.338a3.815 3.815 0 10-2.006 7.358l10.195 2.776-2.746 10.409a3.81 3.81 0 002.716 4.66 3.814 3.814 0 004.66-2.716l3.307-12.543 13.384-7.861v15.805l-9.04 9.192a3.814 3.814 0 105.44 5.34l7.414-7.529 7.414 7.529a3.814 3.814 0 105.44-5.34l-9.04-9.192V47.03l13.383 7.834 3.307 12.544a3.814 3.814 0 107.377-1.945l-2.746-10.408 10.195-2.777a3.814 3.814 0 10-2.007-7.357l-12.296 3.348-13.487-7.898z"></path>
        <path d="M493.956 51.309l7.03 1.914a2.18 2.18 0 101.148-4.206l-5.829-1.587 1.57-5.95a2.18 2.18 0 10-4.217-1.112l-1.89 7.18-7.652 4.478V42.99l5.168-5.255a2.18 2.18 0 10-3.11-3.052l-4.238 4.304-4.24-4.304a2.18 2.18 0 10-3.108 3.052l5.167 5.255v9.036l-7.65-4.478-1.891-7.172a2.181 2.181 0 00-4.217 1.112l1.57 5.95-5.829 1.588a2.181 2.181 0 101.147 4.206l7.03-1.914 7.71 4.515-7.71 4.525-7.03-1.908a2.18 2.18 0 10-1.147 4.206l5.829 1.588-1.57 5.95a2.18 2.18 0 104.217 1.112l1.89-7.171 7.652-4.494v9.036l-5.168 5.255a2.18 2.18 0 103.11 3.052l4.238-4.304 4.24 4.304a2.18 2.18 0 103.109-3.052l-5.168-5.255V59.64l7.651 4.478 1.891 7.172a2.18 2.18 0 004.217-1.112l-1.57-5.95 5.828-1.588a2.181 2.181 0 10-1.146-4.206l-7.03 1.914-7.71-4.516z"></path>
      </g>
    </svg>

