<?xml version="1.0" encoding="UTF-8" standalone="no"?>
<svg
   xmlns:dc="http://purl.org/dc/elements/1.1/"
   xmlns:cc="http://creativecommons.org/ns#"
   xmlns:rdf="http://www.w3.org/1999/02/22-rdf-syntax-ns#"
   xmlns:svg="http://www.w3.org/2000/svg"
   xmlns="http://www.w3.org/2000/svg"
   xmlns:sodipodi="http://sodipodi.sourceforge.net/DTD/sodipodi-0.dtd"
   xmlns:inkscape="http://www.inkscape.org/namespaces/inkscape"
   sodipodi:docname="questionMark2.svg"
   width="16"
   height="16"
   viewBox="0 0 4.2333332 4.2333335"
   version="1.1"
   id="svg8"
   inkscape:version="1.0 (4035a4fb49, 2020-05-01)">
  <defs
     id="defs2" />
  <sodipodi:namedview
     inkscape:window-maximized="1"
     inkscape:window-y="1341"
     inkscape:window-x="-9"
     inkscape:window-height="1051"
     inkscape:window-width="1822"
     units="px"
     id="base"
     pagecolor="#000200"
     bordercolor="#666666"
     borderopacity="1.0"
     inkscape:pageopacity="1"
     inkscape:pageshadow="2"
     inkscape:zoom="35.001786"
     inkscape:cx="11.43103"
     inkscape:cy="6.5270266"
     inkscape:document-units="px"
     inkscape:current-layer="layer1"
     inkscape:document-rotation="0"
     showgrid="false"
     showborder="true"
     inkscape:showpageshadow="false" />
  <metadata
     id="metadata5">
    <rdf:RDF>
      <cc:Work
         rdf:about="">
        <dc:format>image/svg+xml</dc:format>
        <dc:type
           rdf:resource="http://purl.org/dc/dcmitype/StillImage" />
        <dc:title></dc:title>
      </cc:Work>
    </rdf:RDF>
  </metadata>
  <g
     inkscape:label="Layer 1"
     inkscape:groupmode="layer"
     id="layer1">
    <rect
       ry="0.21921501"
       y="-2.3764649e-07"
       x="0.8528294"
       height="4.2333336"
       width="2.5579112"
       id="rect1469"
       style="fill:#ffffff;fill-opacity:1;stroke:none;stroke-width:0.264583;stroke-linecap:round;stroke-linejoin:round;stop-color:#000000" />
    <path
       sodipodi:nodetypes="cccccscscccscscscccc"
       d="m 1.9939001,2.6669996 c 0,-0.1128887 0.018344,-0.2116664 0.055033,-0.296333 C 2.0884444,2.2831777 2.1350111,2.2098 2.1886333,2.1505334 2.2450777,2.0912668 2.3184554,2.0207113 2.4087665,1.9388669 2.5216552,1.8400892 2.6049107,1.7554226 2.6585329,1.6848671 2.7121551,1.6114894 2.7389662,1.5240006 2.7389662,1.4224007 2.7389662,1.2841119 2.685344,1.1740453 2.5780996,1.092201 2.4708553,1.0075344 2.3226887,0.96520108 2.1336,0.96520108 c -0.3301997,0 -0.5827884,0.11147772 -0.757766,0.33443302 L 1.0668009,1.079501 C 1.1853342,0.92710111 1.3363229,0.80997898 1.5197672,0.72813461 1.7060337,0.64629024 1.9205224,0.60536805 2.1632333,0.60536805 c 0.307622,0 0.551744,0.0677333 0.7323661,0.20319983 0.1806221,0.13264435 0.2709331,0.31608862 0.2709331,0.55033282 0,0.1157111 -0.019756,0.2187221 -0.059267,0.3090331 C 3.0705769,1.7554226 3.0254215,1.8288003 2.9717993,1.888067 2.9181771,1.9473336 2.8462105,2.0178891 2.7558995,2.0997335 2.6401885,2.2041556 2.5541108,2.2958778 2.4976664,2.3748999 2.4440442,2.453922 2.4172331,2.5512886 2.4172331,2.6669996 Z"
       style="font-style:normal;font-variant:normal;font-weight:normal;font-stretch:normal;font-size:4.23333px;line-height:0.9;font-family:Montserrat;-inkscape-font-specification:'Montserrat, Normal';font-variant-ligatures:normal;font-variant-caps:normal;font-variant-numeric:normal;font-variant-east-asian:normal;letter-spacing:0px;display:inline;fill:#000000;stroke-width:0.264583"
       id="path1471" />
    <path
       sodipodi:nodetypes="scssscsss"
       id="path1475"
       style="font-style:normal;font-variant:normal;font-weight:normal;font-stretch:normal;font-size:4.23333px;line-height:0.9;font-family:Montserrat;-inkscape-font-specification:'Montserrat, Normal';font-variant-ligatures:normal;font-variant-caps:normal;font-variant-numeric:normal;font-variant-east-asian:normal;letter-spacing:0px;display:inline;fill:#000000;stroke-width:0.264583"
       d="m 2.2098,3.6279655 c -0.079022,0 -0.1453444,-0.0254 -0.1989665,-0.0762 -0.0508,-0.053622 -0.0762,-0.1185331 -0.0762,-0.1947332 0,-0.0762 0.0254,-0.1396999 0.0762,-0.1904998 0.053622,-0.053622 0.1199442,-0.080433 0.1989665,-0.080433 0.079022,0 0.1439332,0.026811 0.1947331,0.080433 0.0508,0.0508 0.0762,0.1142999 0.0762,0.1904998 0,0.0762 -0.026811,0.141111 -0.080433,0.1947332 -0.0508,0.0508 -0.1143,0.0762 -0.1905001,0.0762 z" />
  </g>
</svg>
