<?xml version="1.0" encoding="UTF-8" standalone="no"?>
<svg
   xmlns:dc="http://purl.org/dc/elements/1.1/"
   xmlns:cc="http://creativecommons.org/ns#"
   xmlns:rdf="http://www.w3.org/1999/02/22-rdf-syntax-ns#"
   xmlns:svg="http://www.w3.org/2000/svg"
   xmlns="http://www.w3.org/2000/svg"
   xmlns:sodipodi="http://sodipodi.sourceforge.net/DTD/sodipodi-0.dtd"
   xmlns:inkscape="http://www.inkscape.org/namespaces/inkscape"
   inkscape:version="1.0 (4035a4fb49, 2020-05-01)"
   sodipodi:docname="sky_home_1opt.svg"
   viewBox="0 0 185.21 105.83"
   version="1.1"
   height="400"
   width="700"
   id="svg8">
  <metadata
     id="metadata41">
    <rdf:RDF>
      <cc:Work
         rdf:about="">
        <dc:format>image/svg+xml</dc:format>
        <dc:type
           rdf:resource="http://purl.org/dc/dcmitype/StillImage" />
        <dc:title></dc:title>
      </cc:Work>
    </rdf:RDF>
  </metadata>
  <defs
     id="defs39">
    <filter
       height="1.0025183"
       y="-0.0012591608"
       width="1.0022923"
       x="-0.001146149"
       id="filter1009"
       style="color-interpolation-filters:sRGB"
       inkscape:collect="always">
      <feGaussianBlur
         id="feGaussianBlur1011"
         stdDeviation="0.053232175"
         inkscape:collect="always" />
    </filter>
    <filter
       height="1.0028364"
       y="-0.001418182"
       width="1.00208"
       x="-0.0010399999"
       id="filter1121"
       style="color-interpolation-filters:sRGB"
       inkscape:collect="always">
      <feGaussianBlur
         id="feGaussianBlur1123"
         stdDeviation="0.010016949"
         inkscape:collect="always" />
    </filter>
  </defs>
  <sodipodi:namedview
     inkscape:current-layer="svg8"
     inkscape:window-maximized="1"
     inkscape:window-y="-9"
     inkscape:window-x="-6"
     inkscape:cy="247.67611"
     inkscape:cx="459.74431"
     inkscape:zoom="1.8904388"
     inkscape:object-paths="false"
     showgrid="false"
     id="namedview37"
     inkscape:window-height="1271"
     inkscape:window-width="2400"
     inkscape:pageshadow="2"
     inkscape:pageopacity="1"
     guidetolerance="10"
     gridtolerance="10"
     objecttolerance="10"
     borderopacity="1"
     bordercolor="#666666"
     pagecolor="#000000" />
  <path
     id="sunLU"
     d="m 96.706,50.534 c -3.488,18.129 12.098,31.619 28.501,29.508 13.808,-1.7774 26.318,-10.775 29.251,-23.317 14.24,-50.171 -50.714,-39.416 -57.752,-6.1911 z"
     style="opacity:0.999;fill:none;stroke:#ffffff;stroke-width:0.364338;stroke-linecap:square;stop-color:#000000;"
     transform="matrix(0.72737748,0,0,0.72731383,39.224068,0.70200508)" />
  <path
     id="sunLD"
     d="M 127.36,82.075 C 108.503,85.4284 94.471,70.444 96.667,54.675 98.5158,41.4 107.874,29.374 120.92,26.554 c 52.186,-13.69 41,48.756 6.4398,55.522 z"
     style="opacity:0.999;fill:none;stroke:#ffffff;stroke-width:0.363761;stroke-linecap:square;stop-color:#000000;"
     transform="matrix(0.72737748,0,0,0.72731383,39.224068,0.70200508)" />
  <path
     id="sunRU"
     d="m 97.548,48.181 c -2.5566,17.794 13.701,33.57 29.976,33.728 13.701,0.1329 25.735,-7.1954 28.023,-19.433 C 167.204,13.872 102.878,15.66 97.549,48.181 Z"
     style="opacity:0.999;fill:none;fill-opacity:1;stroke:#ffffff;stroke-width:0.364338;stroke-linecap:square;stop-color:#000000;"
     transform="matrix(0.72737748,0,0,0.72731383,39.224068,0.70200508)" />
  <path
     id="sunRD"
     d="M 131.41,82.828 C 112.747,83.58027 97.965,66.514 99.353,50.92 c 1.1677,-13.128 9.8999,-23.95 22.786,-24.975 51.423,-6.5284 43.444,54.879 9.2716,56.883 z"
     style="opacity:0.999;fill:none;stroke:#ffffff;stroke-width:0.363761;stroke-linecap:square;stop-color:#000000;"
     transform="matrix(0.72737748,0,0,0.72731383,39.224068,0.70200508)" />
  <path
     id="ray1a"
     d="m 129.31,5.3118 -0.21883,2.6738 0.4126,5.6475 -0.64317,3.1335 0.44939,3.5732"
     style="fill:none;stroke:#ffffff;stroke-width:0.363761px;stroke-linecap:round;stroke-linejoin:round;"
     transform="matrix(0.72737748,0,0,0.72731383,39.224068,0.70200508)" />
  <path
     id="ray1b"
     d="m 129.1,1.0968 0.331,5.726 -0.41259,4.5459 0.64317,4.8507 -0.44939,2.3734"
     style="fill:none;stroke:#ffffff;stroke-width:0.363761px;stroke-linecap:round;stroke-linejoin:round;"
     transform="matrix(0.72737748,0,0,0.72731383,39.224068,0.70200508)" />
  <path
     id="ray2a"
     d="m 172.5,20.339 -2.311,1.5997 -5.2891,2.6491 -2.5279,2.1973 -3.4344,1.519"
     style="fill:none;stroke:#ffffff;stroke-width:0.363761px;stroke-linecap:round;stroke-linejoin:round;"
     transform="matrix(0.72737748,0,0,0.72731383,39.224068,0.70200508)" />
  <path
     id="ray2b"
     d="m 174.62,19.121 -4.1663,2.2043 -5.4782,3.6745 -6.351,3.0172 -2.751,2.1136"
     style="fill:none;stroke:#ffffff;stroke-width:0.363761px;stroke-linecap:round;stroke-linejoin:round;"
     transform="matrix(0.72737748,0,0,0.72731383,39.224068,0.70200508)" />
  <path
     id="ray3a"
     d="m 182.86,56.681 -7.0732,-0.37864 -7.1206,0.39666 -3.9509,-0.61833 -4.5053,0.43204"
     style="fill:none;stroke:#ffffff;stroke-width:0.363761px;stroke-linecap:round;"
     transform="matrix(0.72737748,0,0,0.72731383,39.224068,0.70200508)" />
  <path
     id="ray3b"
     d="m 181.38,56.17 -4.1079,0.21037 -5.7316,-0.39666 -6.116,0.61833 -2.9924,-0.43204"
     style="fill:none;stroke:#ffffff;stroke-width:0.363761px;stroke-linecap:round;stroke-linejoin:round;"
     transform="matrix(0.72737748,0,0,0.72731383,39.224068,0.70200508)" />
  <path
     id="ray4a"
     d="m 153.88,78.125 2.4063,2.5951 5.537,4.7698 2.619,3.3558 3.6012,2.8648"
     style="fill:none;stroke:#ffffff;stroke-width:0.363761px;stroke-linecap:round;stroke-linejoin:round;"
     transform="matrix(0.72737748,0,0,0.72731383,39.224068,0.70200508)" />
  <path
     id="ray4b"
     d="m 151.66,76.032 4.3581,3.8932 5.7075,6.0158 6.6534,5.5382 2.8582,3.3311"
     style="fill:none;stroke:#ffffff;stroke-width:0.363761px;stroke-linecap:round;stroke-linejoin:round;"
     transform="matrix(0.72737748,0,0,0.72731383,39.224068,0.70200508)" />
  <path
     id="ray5a"
     d="m 127.14,87.531 -0.21883,2.6738 0.4126,5.6475 -0.64317,3.1335 0.44939,3.5732"
     style="fill:none;stroke:#ffffff;stroke-width:0.363761px;stroke-linecap:round;stroke-linejoin:round;"
     transform="matrix(0.72737748,0,0,0.72731383,39.224068,0.70200508)" />
  <path
     id="ray5b"
     d="m 127.23,84.357 0.21882,3.2581 -0.41259,4.5459 0.64317,4.8507 -0.44939,2.3734"
     style="fill:none;stroke:#ffffff;stroke-width:0.363761px;stroke-linecap:round;stroke-linejoin:round;"
     transform="matrix(0.72737748,0,0,0.72731383,39.224068,0.70200508)" />
  <path
     id="ray6a"
     d="m 87.117,90.515 2.311,-2.2209 5.2891,-4.0709 2.5279,-2.8768 3.4344,-2.4422"
     style="fill:none;stroke:#ffffff;stroke-width:0.363761px;stroke-linecap:round;stroke-linejoin:round;"
     transform="matrix(0.72737748,0,0,0.72731383,39.224068,0.70200508)" />
  <path
     id="ray6b"
     d="m 84.995,92.303 4.1663,-3.3243 5.4782,-5.1471 6.351,-4.7245 2.751,-2.8531"
     style="fill:none;stroke:#ffffff;stroke-width:0.363761px;stroke-linecap:round;stroke-linejoin:round;"
     transform="matrix(0.72737748,0,0,0.72731383,39.224068,0.70200508)" />
  <path
     id="ray7a"
     d="M 90.568,57.308 87.7868,57.51837 81.9125,57.12171 78.6531,57.74004 74.9364,57.308"
     style="fill:none;stroke:#ffffff;stroke-width:0.363761px;stroke-linecap:round;stroke-linejoin:round;"
     transform="matrix(0.72737748,0,0,0.72731383,39.224068,0.70200508)" />
  <path
     id="ray7b"
     d="M 93,57.332 88.3157,57.12163 81.7799,57.51829 74.8058,56.89996 71.3935,57.332"
     style="fill:none;stroke:#ffffff;stroke-width:0.363761px;stroke-linecap:round;stroke-linejoin:round;"
     transform="matrix(0.72737748,0,0,0.72731383,39.224068,0.70200508)" />
  <path
     id="ray8a"
     d="m 87.2,19.651 2.311,2.0656 5.2891,3.7155 2.5279,2.707 3.4344,2.2114"
     style="fill:none;stroke:#ffffff;stroke-width:0.363761px;stroke-linecap:round;stroke-linejoin:round;"
     transform="matrix(0.72737748,0,0,0.72731383,39.224068,0.70200508)" />
  <path
     id="ray8b"
     d="m 85.079,18.005 4.1663,3.0443 5.4782,4.779 6.351,4.2976 2.751,2.6682"
     style="fill:none;stroke:#ffffff;stroke-width:0.363761px;stroke-linecap:round;stroke-linejoin:round;"
     transform="matrix(0.72737748,0,0,0.72731383,39.224068,0.70200508)" />
  <path
     id="cloud1x"
     d="m 75.059071,42.92424 c -3.057222,0.01249 -5.466752,1.539776 -5.867326,3.719201 -0.06413,0.348373 -0.07487,0.705476 -0.03204,1.06504 -0.279661,-1.275672 -2.366112,-2.239511 -4.848163,-2.239616 -2.636064,6.8e-5 -4.914574,1.896033 -4.996065,3.258831 -3.22179,-4.045428 -11.3735,-3.591673 -11.548917,0.163109 -5.836899,0.852688 -9.200769,2.103569 -9.199711,3.421019 2.34e-4,1.563456 4.624065,3.189247 11.696288,3.743278 3.25407,6.751817 9.06848,0.575356 14.38495,0.743629 8.54567,2.804548 11.459489,0.104011 14.52703,-0.114122 9.465349,-0.673038 11.554473,-2.501313 11.554738,-4.372978 2.17e-4,-1.225958 -2.915143,-2.39855 -8.068632,-3.245338 0.4446,-2.637863 -2.167678,-5.307475 -5.857008,-5.985594 -0.579165,-0.106385 -1.165713,-0.159012 -1.74509,-0.156575 z"
     style="opacity:0.999;fill:none;stroke:#ffffff;stroke-width:0.26458;stroke-linecap:round;stroke-linejoin:round;stop-color:#000000" />
  <path
     id="cloud1a"
     d="m 47.814428,49.538669 -3.0225,-0.45236 c 0,0 -5.6942,-0.61166 -7.3478,2.2716 -1.4827,4.6406 9.5475,4.1941 11.695,3.9824 0.7937,-0.08431 2.2716,-0.75721 2.2716,-0.75721"
     style="fill:none;stroke:#ffffff;stroke-width:0.26458px;stroke-linecap:round" />
  <path
     id="cloud1b"
     d="m 80.884428,55.270669 3.0225,0.45236 c 0,0 5.6942,0.61166 7.3478,-2.2716 1.1416,-3.5729 -5.1344,-4.1303 -9.0626,-4.101"
     style="fill:none;stroke:#ffffff;stroke-width:0.265;stroke-linecap:round" />
  <path
     id="cloud2x"
     d="m 101.70765,5.3901742 c -3.057301,0.01249 -5.466701,1.5398 -5.867301,3.7192 -0.06413,0.34837 -0.07487,0.7055 -0.03204,1.0650998 -0.27966,-1.2756998 -2.3662,-2.2394998 -4.8483,-2.2396998 -2.6361,6.9e-5 -4.9145,1.8961 -4.9962,3.2589008 -3.2219,-4.0455008 -11.374,-3.5917008 -11.549,0.16311 -5.8369,0.85269 -10.533,0.49672 -10.77,3.7575 0.06711,3.8492 9.9229,6.6998 13.267,3.4069 3.2541,6.752 9.0125,6.4648 14.329,6.6331 12.248001,-0.33653 13.809001,-5.7683 16.883001,-5.667 12.475,-0.62813 9.0558,-6.6211 1.1864,-7.9548 0.44461,-2.6379008 -2.1677,-5.3076008 -5.857,-5.9857008 -0.57919,-0.10639 -1.1657,-0.15902 -1.7451,-0.15658 z"
     style="opacity:0.999;fill:none;stroke:#ffffff;stroke-width:0.26458;stroke-linecap:square;stop-color:#000000" />
  <path
     id="cloud2a"
     d="m 76.199649,18.341175 c 0,0 3.5524,8.9464 15.944,7.615 6.3563,-0.68293 17.768001,-7.2184 17.768001,-7.2184"
     style="fill:none;stroke:#ffffff;stroke-width:0.265;stroke-linecap:round;stroke-linejoin:round" />
  <path
     id="cloud2b"
     d="m 97.201649,9.5331742 c 0.15928,0.15689 0.04067,0.41246 -0.12339,0.5095198 -0.29348,0.17362 -0.56471,-0.5714398 -0.54517,-0.9303498 0.07089,-1.3022 1.1941,-2.5049 2.3327,-3.1407 1.903401,-1.0629 3.573201,-1.1009 5.257801,-0.58032 0.58887,0.18198 1.5513,0.57109 1.403,1.2044"
     style="fill:none;stroke:#ffffff;stroke-width:0.26458;stroke-linecap:round" />
  <path
     id="cloud3x"
     d="m 162.23629,4.1543153 c 1.65982,0.010948 2.96791,1.3497083 3.18546,3.2600566 0.0348,0.3053629 0.0406,0.6184044 0.0174,0.933611 0.15182,-1.118212 1.28457,-1.9630288 2.63215,-1.9632041 1.43113,6.05e-5 2.66814,1.6620223 2.71245,2.8565816 1.74916,-3.5460741 6.17487,-3.1482967 6.27008,0.1429737 3.16887,0.7474239 4.99525,1.8439059 4.99473,2.9986699 -1.3e-4,1.370483 -2.51053,2.795486 -6.35012,3.281269 -1.7667,5.918451 -4.92338,0.504339 -7.80985,0.651836 -4.63957,2.458278 -6.22146,0.09117 -7.88698,-0.100032 -5.13882,-0.58996 -6.27307,-2.192508 -6.27325,-3.833055 -1.2e-4,-1.074648 1.58268,-2.102488 4.38061,-2.8446609 -0.24138,-2.3122454 1.1769,-4.652365 3.17984,-5.2467521 0.31445,-0.093256 0.63289,-0.1393886 0.94742,-0.1372498 z"
     style="opacity:0.999;fill:none;stroke:#ffffff;stroke-width:0.26458;stroke-linecap:round;stroke-linejoin:round;stop-color:#000000" />
  <path
     id="cloud3a"
     d="m 159.07708,14.9767 -1.64095,0.396515 c 0,0 -3.09147,0.53615 -3.98913,-1.991166 -0.61977,-3.131817 2.78748,-3.6204049 4.92022,-3.594722"
     style="fill:none;stroke:#ffffff;stroke-width:0.265;stroke-linecap:round;" />
  <path
     id="cloud3b"
     d="m 167.79125,15.816433 c 3.60967,0.75455 6.28017,3.756972 7.23566,0.66374 0.90512,-2.930212 -3.26435,1.791225 -0.95987,0.22124 v 0"
     style="fill:none;stroke:#ffffff;stroke-width:0.26458px;stroke-linecap:round;stroke-linejoin:round" />
  <path
     id="cloud3c"
     d="m 177.03196,9.9523283 c 2.52176,-0.6902375 5.74618,0.8405127 5.80243,2.1109027 0.10598,2.394816 -4.7404,2.914258 -6.52141,2.974477"
     style="fill:none;stroke:#ffffff;stroke-width:0.26458px;stroke-linecap:round" />
  <path
     id="cloud4x"
     d="m 169.45784,53.586107 c 1.0187,0.0059 1.8216,0.72404 1.9551,1.7488 0.0214,0.16381 0.0249,0.33174 0.0107,0.50081 0.0932,-0.59986 0.78843,-1.0531 1.6155,-1.0531 0.87837,3.2e-5 1.6376,0.89157 1.6648,1.5324 1.0736,-1.9023 3.7898,-1.6889 3.8483,0.0767 1.9449,0.40095 2.4555,0.96428 2.3119,1.9656 -0.16285,1.136 -1.544,1.8809 -3.1438,1.4033 -1.5998,-0.4776 -2.6048,2.1514 -4.2392,2.2465 -4.0772,0.23704 -4.0461,-2.1175 -6.161,-1.7922 -4.1569,-0.29536 -3.0175,-3.1134 -0.39532,-3.7405 -0.14815,-1.2404 0.7223,-2.4958 1.9516,-2.8146 0.19299,-0.05002 0.38843,-0.07477 0.58149,-0.07363 z"
     style="opacity:0.999;fill:none;stroke:#ffffff;stroke-width:0.26458;stroke-linecap:round;stroke-linejoin:round;stop-color:#000000" />
  <path
     id="cloud4a"
     d="m 165.83784,59.541107 c -3.5121,-1.5767 -0.15059,-3.117 0.35197,-3.3814 1.4525,-0.76428 1.592,-3.247 3.229,-3.1288 1.3516,0.09761 2.825,1.6561 2.4048,3.0731"
     style="fill:none;stroke:#ffffff;stroke-width:0.26458px;stroke-linecap:round;stroke-linejoin:round" />
  <path
     id="cloud4b"
     d="m 176.43784,59.597107 c 0,0 4.6814,2.1458 4.9838,-1.3521 0.10788,-1.2481 -1.8505,-1.2545 -2.8832,-1.5354 -1.6268,-0.44241 1.4301,-2.642 -2.2969,-1.9152"
     style="fill:none;stroke:#ffffff;stroke-width:0.26458px;stroke-linecap:round;stroke-linejoin:round" />
  <path
     style="fill:none;stroke:#ffffff;stroke-width:0.264586px;stroke-linecap:round;stroke-linejoin:round;stroke-opacity:1"
     d="m 81.389052,90.219092 7.45512,-23.8374 10.494157,24.40722 18.519281,-1.992549"
     id="roofA"
     sodipodi:nodetypes="cccc" />
  <path
     style="fill:none;stroke:#ffffff;stroke-width:0.264586px;stroke-linecap:butt;stroke-linejoin:miter;stroke-opacity:1"
     d="m 88.844172,66.381692 24.217288,7.40764 4.79615,15.007031"
     id="roofB"
     sodipodi:nodetypes="ccc" />
  <path
     style="fill:none;stroke:#ffffff;stroke-width:0.264586px;stroke-linecap:round;stroke-linejoin:round;stroke-opacity:1"
     d="m 98.463665,87.108832 -14.415461,-1.543258 3.792892,16.205846 10.337657,3.25488 3e-6,-15.970588"
     id="walllA"
     sodipodi:nodetypes="ccccc" />
  <path
     sodipodi:nodetypes="ccccc"
     id="windowA"
     d="M 97.131628,91.750732 97.594401,99.532131 87.59307,97.286119 85.59046,90.209663 Z"
     style="fill:none;stroke:#ffffff;stroke-width:0.264586px;stroke-linecap:round;stroke-linejoin:round;stroke-opacity:1" />
  <path
     id="windowBarA"
     d="m 90.690759,90.492084 0.62868,8.298488"
     style="fill:none;stroke:#ffffff;stroke-width:0.264586px;stroke-linecap:round;stroke-linejoin:miter;stroke-opacity:1" />
  <path
     style="fill:none;stroke:#ffffff;stroke-width:0.264586px;stroke-linecap:round;stroke-linejoin:round;stroke-opacity:1"
     d="M 98.178753,88.954858 V 105.0263 l 11.825777,-2.44698 4.54327,-13.048299"
     id="wallB"
     sodipodi:nodetypes="cccc" />
  <path
     style="fill:none;stroke:#ffffff;stroke-width:0.264586px;stroke-linecap:round;stroke-linejoin:round;stroke-opacity:1"
     d="m 99.531872,91.869276 0.189218,7.159044 9.34934,-1.623657 2.00261,-7.076456 z"
     id="windowB"
     sodipodi:nodetypes="ccccc" />
  <path
     style="fill:none;stroke:#ffffff;stroke-width:0.264586px;stroke-linecap:round;stroke-linejoin:miter;stroke-opacity:1"
     d="m 105.61711,90.610628 -0.62868,8.298488"
     id="windowBarB" />
  <path
     style="fill:none;stroke:#ffffff;stroke-width:0.264586px;stroke-linecap:round;stroke-linejoin:round;stroke-opacity:1"
     d="M 72.66034,101.26569 70.51142,87.163402"
     id="treeTrunkA" />
  <path
     id="treeTrunkB"
     d="M 73.942431,101.26569 73.218057,87.163402"
     style="fill:none;stroke:#ffffff;stroke-width:0.264586px;stroke-linecap:round;stroke-linejoin:round;stroke-opacity:1"
     sodipodi:nodetypes="cc" />
  <path
     id="treeBody"
     style="opacity:0.999;fill:#008000;stroke:#ffffff;stroke-width:0.265001;stroke-linecap:round;stroke-linejoin:round;stroke-opacity:1;stop-color:#000000"
     d="m 79.394685,77.255728 c 0,6.320265 -5.034501,14.957731 -8.7847,14.957731 -3.750198,0 -1.744177,-2.577815 -6.790335,-11.443851 -7.476244,-13.135668 3.7092,-12.487267 7.550093,-12.393549 3.749083,0.09148 8.024942,2.559404 8.024942,8.879669 z"
     sodipodi:nodetypes="sssss" />
  <path
     sodipodi:nodetypes="sssss"
     d="m 78.377532,72.582678 c 0,3.511039 -3.414271,8.309334 -5.957561,8.309334 -2.543289,0 -1.182856,-1.432031 -4.605032,-6.3573 -5.070199,-7.297141 2.515485,-6.936941 5.120281,-6.884878 2.542533,0.05082 5.442312,1.421803 5.442312,4.932844 z"
     style="opacity:0.999;fill:none;fill-opacity:0.996078;stroke:#ffffff;stroke-width:0.265001;stroke-linecap:round;stroke-linejoin:round;stroke-opacity:1;stop-color:#000000"
     id="treeTop" />
  <path
     style="fill:none;stroke:#ffffff;stroke-width:0.264586px;stroke-linecap:round;stroke-linejoin:round;stroke-opacity:1"
     d="m 55.637127,103.68998 c 0,0 6.501802,-4.591873 15.974009,-6.761535 m 2.695125,-0.249363 c 2.881834,-0.857779 8.892937,0.711352 10.772106,-0.815043"
     id="groundA"
     sodipodi:nodetypes="cccc" />
  <path
     sodipodi:nodetypes="cc"
     id="groundB"
     d="m 136.2457,103.19216 c 0,0 -9.42702,-6.657799 -22.11572,-7.727737"
     style="fill:none;stroke:#ffffff;stroke-width:0.264586px;stroke-linecap:round;stroke-linejoin:round;stroke-opacity:1" />
  <path
     style="fill:none;stroke:#ffffff;stroke-width:0.264586px;stroke-linecap:round;stroke-linejoin:round;stroke-opacity:1"
     d="m 69.483903,101.8061 c 7.124965,-0.25147 5.134489,-1.34655 5.134489,-1.34655 l 1.734283,0.98969 v 0"
     id="groundC"
     sodipodi:nodetypes="cccc" />
  <path
     style="opacity:0.997;fill:none;fill-opacity:1;stroke:#ffffff;stroke-width:0.264586px;stroke-linecap:butt;stroke-linejoin:miter;stroke-opacity:1;filter:url(#filter1121)"
     d="m 92.93831,71.005573 6.994083,16.951758 16.121957,-0.948352 -4.26758,-11.735831 z"
     id="solarB" />
  <ellipse
     style="opacity:0.999;fill:#ffffff;fill-opacity:1;stroke:none;stroke-width:0.265001;stroke-linecap:round;stroke-linejoin:round;stroke-opacity:1;stop-color:#000000"
     id="stone1"
     cx="105.23978"
     cy="103.89971"
     rx="1.0965298"
     ry="0.53344697" />
  <ellipse
     style="opacity:0.999;fill:#ffffff;fill-opacity:1;stroke:none;stroke-width:0.265001;stroke-linecap:round;stroke-linejoin:round;stroke-opacity:1;stop-color:#000000"
     id="stone2"
     cx="110.60026"
     cy="102.78793"
     rx="0.80017042"
     ry="0.29635939" />
  <ellipse
     style="opacity:0.999;fill:#ffffff;fill-opacity:1;stroke:none;stroke-width:0.265001;stroke-linecap:round;stroke-linejoin:round;stroke-opacity:1;stop-color:#000000"
     id="tone3"
     cx="114.07099"
     cy="105.13883"
     rx="0.68162668"
     ry="0.2074516" />
  <ellipse
     style="opacity:0.999;fill:#ffffff;fill-opacity:1;stroke:none;stroke-width:0.265001;stroke-linecap:round;stroke-linejoin:round;stroke-opacity:1;stop-color:#000000"
     id="tone4"
     cx="109.08352"
     cy="103.86028"
     rx="0.85944229"
     ry="0.35563129" />
  <ellipse
     style="opacity:0.999;fill:#ffffff;fill-opacity:1;stroke:none;stroke-width:0.265001;stroke-linecap:round;stroke-linejoin:round;stroke-opacity:1;stop-color:#000000"
     id="path1007"
     cx="112.24548"
     cy="104.12664"
     rx="0.56308287"
     ry="0.23708752" />
  <path
     id="solarA"
     d="m 93.353214,70.235039 6.994086,16.951758 16.12196,-0.948352 -4.26758,-11.735831 z"
     style="opacity:0.99099997;fill:none;fill-opacity:1;stroke:#ffffff;stroke-width:0.264586px;stroke-linecap:butt;stroke-linejoin:miter;stroke-opacity:1" />
  <path
     transform="matrix(0.20116032,0,0,0.3841401,93.321263,60.107631)"
     style="fill:none;stroke:#ffffff;stroke-width:0.95179px;stroke-linecap:round;stroke-linejoin:round;filter:url(#filter1009)"
     d="m 127.23,84.357 0.21882,3.2581 -0.41259,4.5459 0.64317,4.8507 -0.44939,2.3734"
     id="bar1" />
  <path
     transform="matrix(0.14688235,0,0,0.42170232,102.58737,57.263996)"
     style="fill:none;stroke:#ffffff;stroke-width:1.06309px;stroke-linecap:round;stroke-linejoin:round;filter:url(#filter1009)"
     d="m 127.23,84.357 0.21882,3.2581 -0.41259,4.5459 0.64317,4.8507 -0.44939,2.3734"
     id="bar2" />
  <path
     id="bar3"
     d="m 127.23,84.357 0.21882,3.2581 -0.41259,4.5459 0.64317,4.8507 -0.44939,2.3734"
     style="fill:none;stroke:#ffffff;stroke-width:0.885885px;stroke-linecap:round;stroke-linejoin:round;filter:url(#filter1009)"
     transform="matrix(0.20116032,0,0,0.44342199,98.774276,56.408954)" />
  <path
     transform="matrix(0.20116032,0,0,0.44342199,102.44913,57.950023)"
     style="fill:none;stroke:#ffffff;stroke-width:0.885885px;stroke-linecap:round;stroke-linejoin:round;filter:url(#filter1009)"
     d="m 127.23,84.357 0.21882,3.2581 -0.41259,4.5459 0.64317,4.8507 -0.44939,2.3734"
     id="bar4" />
  <path
     id="bar5"
     d="m 127.23,84.357 0.21882,3.2581 -0.41259,4.5459 0.64317,4.8507 -0.44939,2.3734"
     style="fill:none;stroke:#ffffff;stroke-width:0.657354px;stroke-linecap:round;stroke-linejoin:round;filter:url(#filter1009)"
     transform="matrix(0.30971627,0,0,0.52306078,92.570612,52.285939)" />
</svg>
