<svg width="80" height="80" data-name="Layer 1" version="1.1" viewBox="0 0 80 80" xmlns="http://www.w3.org/2000/svg" xmlns:xlink="http://www.w3.org/1999/xlink">
    <defs>
        <linearGradient id="linearGradient921" x1="-12.05" x2="70.949" y1="40.994" y2="40.792" gradientUnits="userSpaceOnUse">
            <stop style="stop-color:#00e7e1" offset="0"/>
            <stop style="stop-color:#00e7e1;stop-opacity:0" offset="1"/>
        </linearGradient>
    </defs>
    <title>sunIconLike</title>
    <g transform="matrix(-1.0736 0 0 1.0736 80.727 -3.7955)" style="stroke-width:.93143">
        <path d="m66.885 51.102c0.33044 4.35-1.8898 8.5516-9.3558 8.0005-7.1767 17.958-29.996 13.915-34.502-1.2877-6.3099 1.1967-9.8018-5.8512-11.82-9.0233-13.468-2.8626-13.928-13.781 0.22603-17.299 2.6329-1.1548 1.5382-8.2915 9.413-7.5081 10.34-18.544 38.84-18.738 40.479 5.3246 20.638 3.3376 13.707 21.839 5.5594 21.793z" style="fill:#00ffe1;stop-color:#000000;stroke-linecap:square;stroke-width:.093143;stroke:#fff"/>
        <path d="m63.786 49.998c0.29507 3.8842-1.6875 7.6358-8.3543 7.1437-6.4084 16.035-26.785 12.425-30.808-1.1498-5.6345 1.0686-8.7525-5.2246-10.555-8.057-12.026-2.5561-12.437-12.305 0.20183-15.447 2.351-1.0312 1.3735-7.4035 8.4054-6.7041 9.2328-16.558 34.683-16.731 36.146 4.7544 18.428 2.9802 12.24 19.5 4.9643 19.459z" style="fill:url(#linearGradient921);stop-color:#000000"/>
    </g>
</svg>
