<svg width="5" height="21" version="1.1" viewBox="0 0 1.3229 5.5563" xmlns="http://www.w3.org/2000/svg">
    <g>
        <g transform="translate(-.039755 .23945)">
            <path d="m1.0742 4.3885c0.089943 0.089943 0.11424 0.1786 0.11424 0.31352 0 0.13492-0.04747 0.24984-0.14241 0.34478-0.089943 0.089943-0.20237 0.13492-0.33729 0.13492-0.13991 0-0.25734-0.044972-0.35228-0.13492-0.09494-0.09494-0.14241-0.20987-0.14241-0.34478 0-0.13492 0.04747-0.24734 0.14241-0.33729 0.09494-0.09494 0.21237-0.14241 0.35228-0.14241 0.13991 0 0.2352 0.023699 0.32515 0.11864" style="fill:none;font-variant-caps:normal;font-variant-east-asian:normal;font-variant-ligatures:normal;font-variant-numeric:normal;stroke-width:.026458;stroke:#add100"/>
            <path d="m0.99267 3.3958 0.1406-3.5002h-0.84775l0.13739 3.5898h0.56857" style="fill:none;stroke-width:.026458;stroke:#add100"/>
        </g>
    </g>
</svg>
