<svg id="svg8" width="79" height="26" version="1.1" viewBox="0 0 20.902 6.8792" xmlns="http://www.w3.org/2000/svg">
    <g id="layer1">
        <g id="text842" transform="matrix(1 -.038186 -.32141 1.0123 0 0)" style="font-variant-caps:normal;font-variant-east-asian:normal;font-variant-ligatures:normal;font-variant-numeric:normal;stroke-width:.26458; fill:#fff;" aria-label="powrót">
            <path id="path865" d="m4.5842 2.6123q0.20082-0.060964 0.34247-0.098618 0.14165-0.037654 0.23668-0.059171 0.096825-0.021517 0.15062-0.028689 0.055585-0.00897 0.082481-0.00897 0.044827 0 0.084274 0.014345 0.039447 0.012551 0.068136 0.044827 0.030482 0.032275 0.04662 0.08786 0.016138 0.053792 0.016138 0.13448 0 0.026896-0.00359 0.10579-0.00179 0.078895-0.00897 0.21875-0.00717 0.13807-0.019724 0.34068-0.010758 0.20082-0.028689 0.47337l0.021517 0.00179q0.13987-0.34785 0.30124-0.61501 0.16317-0.26896 0.32992-0.45185 0.16855-0.18289 0.3353-0.27613 0.16675-0.095032 0.31737-0.095032 0.12193 0 0.21517 0.04662 0.093239 0.044826 0.16138 0.12193 0.069929 0.075309 0.11655 0.17572 0.04662 0.098618 0.075309 0.208 0.028689 0.10758 0.04124 0.21875t0.012551 0.208q0 0.26358-0.053792 0.49309-0.053791 0.22951-0.14703 0.42137-0.093239 0.19006-0.22055 0.34068t-0.27613 0.25461q-0.14703 0.1022-0.3102 0.156-0.16138 0.055585-0.32454 0.055585-0.17393 0-0.33889-0.062757-0.16496-0.062757-0.3102-0.208-0.019724 0.45006-0.039447 0.92881-0.019724 0.48054-0.021517 1.0023l-0.37654 0.043033-0.037654-0.00179q0.026896-0.33531 0.050205-0.70468 0.02331-0.36758 0.043033-0.73874 0.019724-0.37116 0.035861-0.72978 0.016138-0.36041 0.026896-0.67598 0.010758-0.31558 0.016138-0.57199 0.00717-0.2582 0.00717-0.42675 0-0.068136-0.00717-0.11834-0.00717-0.051999-0.028689-0.086067-0.019724-0.034068-0.059171-0.050206-0.039447-0.017931-0.104-0.017931-0.066343 0-0.16138 0.014344-0.095032 0.014344-0.22951 0.048413zm0.92881 2.0226q0.15241 0.1291 0.30303 0.19006 0.15241 0.060964 0.30482 0.060964 0.20082 0 0.36937-0.084274 0.17034-0.086067 0.29227-0.25461 0.12372-0.16855 0.19186-0.41599 0.069929-0.24924 0.069929-0.57737 0-0.12193-0.019724-0.25103-0.017931-0.1291-0.059171-0.2331-0.039447-0.10579-0.10579-0.17213-0.06455-0.068136-0.15779-0.068136-0.10938 0-0.21696 0.057378-0.10758 0.055585-0.20979 0.15241-0.10041 0.095032-0.19365 0.22413-0.093239 0.1291-0.17572 0.27434-0.082481 0.14344-0.15062 0.29765-0.068136 0.15241-0.12014 0.29765-0.050206 0.14524-0.082481 0.27434-0.030482 0.1291-0.039447 0.22772z" style="font-variant-caps:normal;font-variant-east-asian:normal;font-variant-ligatures:normal;font-variant-numeric:normal;stroke-width:.26458"/>
            <path id="path867" d="m7.8942 3.9732q0-0.1811 0.037654-0.36758t0.11117-0.36041q0.073516-0.17572 0.1811-0.32813 0.10938-0.1542 0.25103-0.26896 0.14165-0.11476 0.31558-0.1811 0.17393-0.066343 0.37834-0.066343 0.22951 0 0.40523 0.096825 0.17751 0.096825 0.29765 0.25641 0.12014 0.15779 0.1811 0.36041 0.06276 0.20262 0.06276 0.4142 0 0.1811-0.03765 0.36758t-0.11296 0.3622q-0.07352 0.17393-0.18289 0.32813-0.10759 0.15241-0.24924 0.26717-0.14165 0.11476-0.31558 0.1811-0.17393 0.066343-0.37834 0.066343-0.22951 0-0.40702-0.096825-0.17572-0.096825-0.29586-0.25461-0.11834-0.15958-0.1811-0.3622-0.060964-0.20262-0.060964-0.4142zm0.42854-0.17034q0 0.12193 0.017931 0.24744 0.019724 0.12551 0.059171 0.24206t0.096825 0.21875q0.059171 0.10041 0.13807 0.17572 0.080688 0.075309 0.17931 0.11834 0.10041 0.043033 0.22055 0.043033 0.13089 0 0.22951-0.055585 0.10041-0.057378 0.17213-0.15062 0.073516-0.093239 0.12014-0.21337 0.048413-0.12014 0.077102-0.24744 0.028689-0.1291 0.039447-0.25461 0.012551-0.12551 0.012551-0.2313 0-0.12372-0.019724-0.24744-0.01793-0.12551-0.057377-0.24027-0.039447-0.11655-0.098618-0.21696-0.057378-0.1022-0.13807-0.17572-0.078895-0.075309-0.17931-0.11834-0.098618-0.043033-0.21875-0.043033-0.13089 0-0.2313 0.055585-0.098618 0.055585-0.17213 0.14882-0.071722 0.093239-0.12014 0.21337-0.04662 0.12014-0.075309 0.24744-0.028689 0.12731-0.04124 0.25461-0.010758 0.12551-0.010758 0.22951z" style="font-variant-caps:normal;font-variant-east-asian:normal;font-variant-ligatures:normal;font-variant-numeric:normal;stroke-width:.26458"/>
            <path id="path869" d="m12.447 5.0634q-0.05021-0.34068-0.12193-0.70467-0.07172-0.36578-0.15779-0.73516-0.04841 0.10938-0.11117 0.23489-0.06276 0.12372-0.13448 0.25641-0.06993 0.13089-0.14703 0.26537-0.0771 0.13269-0.1542 0.25999-0.07531 0.12551-0.15062 0.24027-0.07352 0.11476-0.13986 0.208l-0.19544-0.021517q-0.02331-0.17213-0.05558-0.36041-0.03048-0.19006-0.06634-0.38192-0.03586-0.19365-0.07531-0.38013-0.03766-0.18648-0.0771-0.35323-0.03765-0.16855-0.07352-0.30841-0.03586-0.14165-0.06634-0.24027-0.03586-0.11476-0.06814-0.18648-0.03048-0.071722-0.06455-0.11117-0.03227-0.039447-0.06993-0.053792-0.03765-0.014344-0.08607-0.014344-0.05738 0-0.12372 0.012551-0.06455 0.012551-0.156 0.034068l-0.0269-0.1291q0.24027-0.086067 0.41599-0.13089 0.17572-0.04662 0.25103-0.04662 0.04483 0 0.08427 0.016138 0.04124 0.016137 0.0771 0.055585 0.03586 0.039447 0.06993 0.10758 0.03407 0.068136 0.06634 0.17213 0.02331 0.075309 0.05379 0.18827 0.03048 0.11296 0.06276 0.25461 0.03407 0.13986 0.06993 0.30303t0.06993 0.33889 0.06455 0.35861q0.03228 0.1811 0.05738 0.36041 0.03945-0.060964 0.09145-0.15062 0.052-0.089653 0.10758-0.19365 0.05738-0.104 0.11296-0.21337 0.05738-0.11117 0.10579-0.21517 0.04841-0.104 0.08427-0.19365 0.03586-0.089653 0.052-0.15241 0.01076-0.043033 0.01434-0.084274 0.0054-0.043033 0.0054-0.084274 0-0.055585-0.0072-0.11834-0.0072-0.06455-0.01972-0.1291-0.01076-0.06455-0.0251-0.1291-0.01435-0.06455-0.02869-0.12193-0.01255-0.048413-0.01255-0.077102 0-0.057378 0.03586-0.08786 0.03765-0.032275 0.12372-0.032275 0.05738 0 0.11655 0.016138 0.06096 0.014344 0.11296 0.04124 0.05738 0.22234 0.11655 0.46799 0.06096 0.24386 0.11834 0.49488 0.05917 0.24924 0.11117 0.49668 0.052 0.24565 0.09324 0.47337 0.12551-0.19903 0.24565-0.40702 0.12193-0.208 0.21517-0.4142 0.09503-0.208 0.15241-0.4124t0.05738-0.39806q0-0.080688-0.01076-0.156-0.01076-0.077102-0.03765-0.14703-0.0251-0.069929-0.06993-0.13269-0.04483-0.062757-0.11296-0.11655l0.01972-0.043033q0.03228-0.00359 0.06276-0.00538t0.05917-0.00179q0.23848 0 0.35144 0.11296 0.11476 0.11296 0.11476 0.31379 0 0.15241-0.06096 0.34606-0.05917 0.19186-0.15958 0.40344-0.09862 0.21158-0.22413 0.43213-0.12551 0.21875-0.2582 0.42496-0.13089 0.2062-0.2582 0.38909-0.12552 0.1811-0.22413 0.31737z" style="font-variant-caps:normal;font-variant-east-asian:normal;font-variant-ligatures:normal;font-variant-numeric:normal;stroke-width:.26458"/>
            <path id="path871" d="m14.321 5.0508-0.02869-0.00179q0.01435-0.17034 0.0269-0.37116t0.02331-0.40702q0.01076-0.208 0.01793-0.41061 9e-3 -0.20441 0.01434-0.38013 0.0072-0.17751 9e-3 -0.31737 0.0036-0.13986 0.0036-0.22055 0-0.066343-0.0054-0.11476t-0.0251-0.080688q-0.01793-0.032275-0.05379-0.04662-0.03586-0.016138-0.09683-0.016138-0.03048 0-0.06276 0.00359t-0.07172 0.010758q-0.03945 0.00717-0.08965 0.019724-0.04841 0.010758-0.11296 0.026896l-0.02692-0.12911q0.29765-0.10758 0.48233-0.15062 0.18468-0.044826 0.24924-0.044826 0.11834 0 0.16855 0.069929 0.052 0.068136 0.052 0.20441 0 0.012551-0.0036 0.073515t-0.01076 0.15958q-0.0054 0.096825-0.01434 0.22593-9e-3 0.1291-0.02152 0.27792-0.01076 0.14703-0.0251 0.30841-0.01434 0.15958-0.03048 0.31916l0.01793 0.00179q0.08607-0.35144 0.19365-0.65447 0.10938-0.30482 0.24386-0.52895 0.13627-0.22413 0.29765-0.35144 0.16317-0.1291 0.35682-0.1291 0.06814 0 0.12731 0.021517 0.05917 0.021517 0.1022 0.060964 0.04303 0.037654 0.06814 0.091446 0.0251 0.051999 0.0251 0.11476 0 0.080688-0.03586 0.156-0.03407 0.073516-0.10938 0.13089h-0.014344q-0.07531-0.062757-0.14344-0.089653-0.06634-0.028689-0.14165-0.028689-0.08069 0-0.156 0.030482-0.07531 0.030482-0.13807 0.08786-0.1022 0.093239-0.19006 0.24744-0.08786 0.15241-0.16138 0.33889-0.07172 0.18648-0.13089 0.39268-0.05738 0.20441-0.10041 0.39985-0.04124 0.19365-0.06814 0.36578-0.0251 0.17034-0.03586 0.28689z" style="font-variant-caps:normal;font-variant-east-asian:normal;font-variant-ligatures:normal;font-variant-numeric:normal;stroke-width:.26458"/>
            <path id="path873" d="m16.128 3.9732q0-0.1811 0.03765-0.36758 0.03766-0.18648 0.11117-0.36041 0.07352-0.17572 0.1811-0.32813 0.10938-0.1542 0.25103-0.26896 0.14165-0.11476 0.31558-0.1811 0.17393-0.066343 0.37834-0.066343 0.22951 0 0.40523 0.096825 0.17751 0.096825 0.29765 0.25641 0.12014 0.15779 0.1811 0.36041 0.06276 0.20262 0.06276 0.4142 0 0.1811-0.03765 0.36758t-0.11296 0.3622q-0.07352 0.17393-0.18289 0.32813-0.10758 0.15241-0.24924 0.26717-0.14165 0.11476-0.31558 0.1811-0.17393 0.066343-0.37834 0.066343-0.22951 0-0.40702-0.096825-0.17572-0.096825-0.29586-0.25461-0.11834-0.15958-0.1811-0.3622-0.06096-0.20262-0.06096-0.4142zm0.42854-0.17034q0 0.12193 0.01793 0.24744 0.01972 0.12551 0.05917 0.24206t0.09683 0.21875q0.05917 0.10041 0.13806 0.17572 0.08069 0.075309 0.17931 0.11834 0.10041 0.043033 0.22055 0.043033 0.13089 0 0.22951-0.055585 0.10041-0.057378 0.17213-0.15062 0.07352-0.093239 0.12014-0.21337 0.04841-0.12014 0.0771-0.24744 0.02869-0.1291 0.03945-0.25461 0.01255-0.12551 0.01255-0.2313 0-0.12372-0.01972-0.24744-0.01793-0.12551-0.05738-0.24027-0.03945-0.11655-0.09862-0.21696-0.05738-0.1022-0.13806-0.17572-0.07889-0.075309-0.17931-0.11834-0.09862-0.043033-0.21875-0.043033-0.13089 0-0.2313 0.055585-0.09862 0.055585-0.17213 0.14882-0.07172 0.093239-0.12014 0.21337-0.04662 0.12014-0.07531 0.24744-0.02869 0.12731-0.04124 0.25461-0.01076 0.12551-0.01076 0.22951zm0.45185-1.655q0.12552-0.17213 0.22951-0.34247 0.10579-0.17213 0.19365-0.33889 0.08786-0.16675 0.15958-0.32813 0.07172-0.16317 0.13089-0.31916l0.08069-0.017931q0.03407 0.034068 0.06096 0.075309 0.02869 0.04124 0.04662 0.084274 0.01972 0.04124 0.03048 0.080688 0.01076 0.039447 0.01076 0.069929 0 0.043033-0.03945 0.11834-0.03765 0.075309-0.104 0.17213-0.06455 0.095032-0.15062 0.20441-0.08607 0.10938-0.1811 0.21875-0.09324 0.10938-0.19186 0.21517-0.09862 0.104-0.18648 0.18827z" style="font-variant-caps:normal;font-variant-east-asian:normal;font-variant-ligatures:normal;font-variant-numeric:normal;stroke-width:.26458"/>
            <path id="path875" d="m19.68 1.1276q-0.07531 0.34068-0.12731 0.70467-0.05021 0.3622-0.08607 0.71543 0.08427 0.00359 0.16317 0.00538 0.08069 0.00179 0.14882 0.00359 0.06993 0.00179 0.12551 0.00179 0.05738 0 0.09503 0 0.16317 0 0.26717-0.019724 9e-3 0.030482 0.01434 0.055585 0.0054 0.025103 0.0054 0.04662 0 0.078895-0.06634 0.1022-0.06455 0.02331-0.18827 0.02331-0.11834 0-0.26537-0.014344-0.14524-0.014344-0.31916-0.026896-0.01972 0.19186-0.03407 0.37475-0.01255 0.1811-0.02152 0.34247-0.0072 0.16138-0.01076 0.29944-0.0036 0.13807-0.0036 0.24027 0 0.19186 0.01972 0.34247 0.01972 0.15062 0.06993 0.25641 0.05021 0.104 0.13807 0.15958 0.08786 0.055585 0.22234 0.055585 0.09682 0 0.21517-0.034068 0.12014-0.034068 0.27254-0.10938 0.04841 0.048413 0.05559 0.11834-0.11117 0.073516-0.22413 0.13448-0.11296 0.059171-0.22234 0.1022-0.10938 0.043033-0.21158 0.066343-0.1022 0.02331-0.19365 0.02331-0.12014 0-0.22055-0.044827-0.09862-0.043033-0.17213-0.1542-0.07172-0.11296-0.11296-0.30303-0.03945-0.19006-0.03945-0.48054 0-0.16317 0.0054-0.3353 0.0054-0.17393 0.01434-0.35144 9e-3 -0.17751 0.02331-0.35503 0.01434-0.17751 0.03227-0.34965-0.14165 0.00179-0.26358 0.012551-0.12014 0.00897-0.2062 0.030482-0.0054-0.010758-0.0054-0.025103 0-0.037654 0.03586-0.069929 0.03766-0.034068 0.1022-0.060964 0.06634-0.026896 0.15779-0.044827 0.09145-0.017931 0.20082-0.025103 0.04124-0.37475 0.08786-0.70826 0.04662-0.33351 0.09324-0.5953 9e-3 -0.04662 0.03228-0.077102 0.0251-0.030482 0.05738-0.048413 0.03227-0.017931 0.06993-0.025103 0.03765-0.00717 0.07352-0.00717 0.05917 0 0.10579 0.012551 0.04841 0.012551 0.08965 0.035861z" style="font-variant-caps:normal;font-variant-east-asian:normal;font-variant-ligatures:normal;font-variant-numeric:normal;stroke-width:.26458"/>
        </g>
        <path id="path859" d="m13.232 0.033432c-0.88336 0.00235-1.8426 0.05127-2.9027 0.14831-2.8268 0.25878-5.3853 0.84487-7.2487 1.5875-0.93166 0.37132-1.6906 0.78056-2.2252 1.2175-0.53454 0.43693-0.85576 0.91363-0.85576 1.4046 0 0.49093 0.32122 0.9084 0.85576 1.2475 0.53454 0.33907 1.2935 0.60954 2.2252 0.81029 1.8633 0.40148 4.4219 0.51871 7.2487 0.25993 2.8268-0.25878 5.3859-0.84487 7.2492-1.5875 0.93166-0.37132 1.6886-0.78005 2.2231-1.217 0.53454-0.43693 0.89191-1.1034 0.5702-1.5473-0.42261-0.58315-0.19396-0.1864-0.07791 0.15914 0.14952 0.44519-0.1483 0.78107-0.64577 1.1877-0.49747 0.40663-1.234 0.80684-2.1477 1.171-1.8273 0.7283-4.3662 1.3116-7.1711 1.5684-2.8049 0.25678-5.3459 0.13845-7.1732-0.25528-0.91367-0.19687-1.6476-0.46269-2.1451-0.77825-0.49747-0.31555-0.74672-0.66925-0.74672-1.0428 0-0.37358 0.24925-0.77314 0.74672-1.1798 0.49747-0.40663 1.2314-0.80684 2.1451-1.171 1.8273-0.7283 4.3683-1.3121 7.1732-1.5689 2.805-0.25678 4.7333-0.33228 6.5606 0.061456 0.18419 0.016137-0.03678-0.085771-0.46546-0.22523-1.1646-0.25093-1.7202-0.25407-3.1925-0.25015z" style="fill:#fff;"/>
    </g>
</svg>
