<svg id="9b8dff4b-368a-4ab8-bc0b-59c96572f6a5" data-name="Layer 1" version="1.1" viewBox="0 0 883 711.86" xmlns="http://www.w3.org/2000/svg">
    <title id="title1648">air support</title>
    <rect id="rect1590" x="111.18" y="200" width="200" height="200" style="display:none;fill:#f0f;stop-color:#000000;stroke-linecap:round;stroke-linejoin:round"/>
    <rect id="rect1598" x="390.65" y="182" width="195" height="200" style="display:none;fill:#f0f;stop-color:#000000;stroke-linecap:round;stroke-linejoin:round"/>
    <rect id="rect1600" x="658.75" y="179.32" width="190" height="200" style="display:none;fill:#f0f;stop-color:#000000;stroke-linecap:round;stroke-linejoin:round"/>
    <rect id="rect932" x="93.239" y="119.03" width="212.27" height="203.34" ry="9.4686" style="fill:#fff;stop-color:#000000;stroke-linecap:round;stroke-linejoin:round"/>
    <rect id="rect934" x="96.746" y="121.83" width="212.27" height="203.34" ry="9.4686" style="fill:#f2f2f2;stop-color:#000000;stroke-linecap:round;stroke-linejoin:round;stroke:#ccc"/>
    <rect id="rect938" x="123.67" y="147.63" width="158.41" height="151.75" ry="7.0664" style="fill:#fff;stop-color:#000000;stroke-linecap:round;stroke-linejoin:round;stroke:#ccc"/>
    <rect id="rect936" x="125.5" y="149.38" width="154.75" height="148.25" ry="6.9031" style="fill:#f2f2f2;stop-color:#000000;stroke-linecap:round;stroke-linejoin:round;stroke:#808080"/>
    <rect id="rect940" x="126.99" y="150.81" width="151.78" height="145.39" ry="6.7703" style="fill:#e6e6e6;stop-color:#000000"/>
    <circle id="path942" cx="202.88" cy="223.5" r="49.892" style="fill:#fff;stop-color:#000000"/>
    <circle id="circle944" cx="202.88" cy="223.5" r="48.353" style="fill:#333;stop-color:#000000"/>
    <rect id="rect948" x="166.12" y="194.8" width="73.559" height="57.238" style="fill:#e6e6e6;stop-color:#000000"/>
    <rect id="rect950" x="160.62" y="220.92" width="84.519" height="5.0952" ry="1.625" style="fill:#e6e6e6;stop-color:#000000"/>
    <path id="path960" d="m163.53 196.51v21.93c0 0.66731-0.73256 1.3897-1.4072 1.3897h-4.4969v7.6428h4.4656c0.9686 0.034 1.4384 1.0111 1.4384 1.6081v21.369s-8.6716-10.72-8.6716-27.485c0-15.455 8.6716-26.456 8.6716-26.456z" style="fill:#4d4d4d"/>
    <path id="path966" d="m166.1 194.85h73.559s-12.7-17.981-36.779-17.981c-23.812 0-36.781 17.981-36.781 17.981z" style="fill:#e6e6e6"/>
    <path id="path968" d="m166.1 252.01h73.559s-12.7 17.981-36.779 17.981c-23.812 0-36.781-17.981-36.781-17.981z" style="fill:#e6e6e6"/>
    <rect id="rect970" x="184.26" y="217.75" width="37.24" height="57" ry="4.5426" style="fill:#e6e6e6;stop-color:#000000"/>
    <path id="rect1038" d="m202.35 304.5c3.0994 0 5.5947 10.383 5.5947 23.281v265.52h-11.189v-77.111-188.41c0-12.898 2.4952-23.281 5.5947-23.281z" style="fill:#fff;stop-color:#000000"/>
    <rect id="rect1010" x="193.05" y="249.45" width="19.659" height="60.8" ry="4.8454" style="fill:#ececec;stop-color:#000000;stroke-linecap:round;stroke-linejoin:round;stroke:#b3b3b3"/>
    <rect id="rect972" x="187.67" y="221.7" width="30.414" height="50.971" ry="4.0621" style="fill:#fff;stop-color:#000000"/>
    <rect id="rect974" x="191.3" y="178.36" width="23.159" height="53.022" ry="1.2204" style="fill:#fff;stop-color:#000000"/>
    <path id="path1016" d="m242.36 196.51v21.93c0 0.66731 0.73256 1.3897 1.4072 1.3897h4.4969v7.6428h-4.4656c-0.9686 0.034-1.4384 1.0111-1.4384 1.6081v21.369s8.6716-10.72 8.6716-27.485c0-15.455-8.6716-26.456-8.6716-26.456z" style="fill:#4d4d4d"/>
    <path id="path1020" d="m172.44 188.25s12.172-11.375 30.443-11.375c18.547 0 30.682 11.375 30.682 11.375s-11.892-6.3963-19.044-7.8052-16.025-1.4132-23.158 0-18.923 7.8052-18.923 7.8052z" style="fill:#fff"/>
    <rect id="rect1024" x="188.54" y="223.78" width="28.677" height="48.06" ry="3.8302" style="fill:#e6e6e6;stop-color:#000000"/>
    <path id="path1030" d="m189.94 270.97c1.0435 0.80947 1.9557 0.85622 2.2873 0.85614 3.3022-7.5e-4 21.398-5e-3 21.471-5e-3 0.4942 0 3.4357-0.44106 3.52-4.4095v-39.944c0-2.8362-3.4688-3.6887-3.4688-3.6887 1.5786 0 3.4688 0.104 3.4688-0.49999 0 0 1.1411 0.90968 0.875 4.1887v41.124c0.0442 2.3325-2.1367 4.0703-3.6333 4.0703h-22.781s-0.87331 0.19552-1.7386-1.6917z" style="fill:#ccc"/>
    <rect id="rect1042" x="204.42" y="279.79" width="7.8125" height="2.4257" ry=".015751" style="fill:#4d4d4d;stop-color:#000000"/>
    <rect id="rect1044" x="204.42" y="283.94" width="7.8125" height="2.4257" ry=".015751" style="fill:#4d4d4d;stop-color:#000000"/>
    <rect id="rect1048" x="204.42" y="288.18" width="7.8125" height="2.4257" ry=".015751" style="fill:#4d4d4d;stop-color:#000000"/>
    <rect id="rect1053" x="204.42" y="292.16" width="7.8125" height="2.4257" ry=".015751" style="fill:#4d4d4d;stop-color:#000000"/>
    <rect id="rect1055" x="204.42" y="296.32" width="7.8125" height="2.4257" ry=".015751" style="fill:#4d4d4d;stop-color:#000000"/>
    <rect id="rect1057" x="204.42" y="300.56" width="7.8125" height="2.4257" ry=".015751" style="fill:#4d4d4d;stop-color:#000000"/>
    <path id="rect1061" d="m193.52 283.94h7.781c9e-3 0 0.0157 7e-3 0.0157 0.0158v2.3942c0 9e-3 -7e-3 0.0158-0.0157 0.0158h-7.781c-9e-3 0-0.0126-8e-3 -0.0157-0.0158l-0.90598-2.3942c-3e-3 -8e-3 0.91298-0.0158 0.92168-0.0158z" style="fill:#4d4d4d;stop-color:#000000"/>
    <path id="rect1059" d="m193.52 279.79h7.781c9e-3 0 0.0157 7e-3 0.0157 0.0157v2.3942c0 9e-3 -7e-3 0.0158-0.0157 0.0158h-7.781c-9e-3 0-0.0125-8e-3 -0.0157-0.0158l-0.92808-2.3942c-3e-3 -8e-3 0.93508-0.0157 0.94378-0.0157z" style="fill:#4d4d4d;stop-color:#000000"/>
    <rect id="rect1063" x="193.51" y="288.18" width="7.8125" height="2.4257" ry=".015751" style="fill:#4d4d4d;stop-color:#000000"/>
    <rect id="rect1065" x="193.51" y="292.16" width="7.8125" height="2.4257" ry=".015751" style="fill:#4d4d4d;stop-color:#000000"/>
    <rect id="rect1067" x="193.51" y="296.32" width="7.8125" height="2.4257" ry=".015751" style="fill:#4d4d4d;stop-color:#000000"/>
    <rect id="rect1069" x="193.51" y="300.56" width="7.8125" height="2.4257" ry=".015751" style="fill:#4d4d4d;stop-color:#000000"/>
    <path id="path1073" d="m192.55 272.66h0.97723l-0.0253 7.1231-0.9519-6e-3z" style="fill:#fff"/>
    <path id="path1077" d="m192.55 282.21h0.97729l-0.0253 1.728-0.95196-9.8e-4z" style="fill:#fff"/>
    <path id="path1086" d="m-196.27 593.3v-11.189h404.21v11.189z" style="fill:#ccc"/>
</svg>
