<svg id="svg8" width="700" height="400" version="1.1" viewBox="0 0 185.21 105.83" xmlns="http://www.w3.org/2000/svg" xmlns:xlink="http://www.w3.org/1999/xlink">
    <defs id="defs872">
        <linearGradient id="linearGradient952">
            <stop id="stop948" offset="0"/>
            <stop id="stop950" style="stop-opacity:0" offset="1"/>
        </linearGradient>
        <linearGradient id="linearGradient954" x1="-3.3569e-6" x2="221.39" y1="93.687" y2="93.687" gradientUnits="userSpaceOnUse" xlink:href="#linearGradient952"/>
        <linearGradient id="linearGradient956" x1="94.232" x2="94.232" y1="105.45" y2="87.274" gradientUnits="userSpaceOnUse">
            <stop id="stop958" offset="0"/>
            <stop id="stop960" style="stop-color:#13ff00" offset="1"/>
        </linearGradient>
        <linearGradient id="linearGradient976" x1="-3.3569e-6" x2="181.89" y1="93.687" y2="94.48" gradientUnits="userSpaceOnUse" xlink:href="#linearGradient952"/>
        <linearGradient id="linearGradient978" x1="131.36" x2="-3.3569e-6" y1="120.84" y2="81.937" gradientUnits="userSpaceOnUse">
            <stop id="stop980" style="stop-color:#002e00" offset="0"/>
            <stop id="stop982" style="stop-color:#1afe00;stop-opacity:.98039" offset="1"/>
        </linearGradient>
    </defs>
    <g id="layer1">
        <g id="g916" transform="matrix(.35004 0 0 .34988 106.86 8.4535)" style="stroke-width:2.8575">
            <path id="sunLU" d="m96.706 50.534c-3.488 18.129 12.098 31.619 28.501 29.508 13.808-1.7774 26.318-10.775 29.251-23.317 14.24-50.171-50.714-39.416-57.752-6.1911z" style="fill:none;opacity:.999;stop-color:#000000;stroke-linecap:square;stroke-width:.75723;stroke:#000"/>
            <path id="sunLD" d="m127.36 82.075c-18.857 3.3534-32.889-11.631-30.693-27.4 1.8488-13.275 11.207-25.301 24.253-28.121 52.186-13.69 41 48.756 6.4398 55.522z" style="fill:none;opacity:.999;stop-color:#000000;stroke-linecap:square;stroke-width:.75603;stroke:#000"/>
            <path id="sunRU" d="m97.548 48.181c-2.5566 17.794 13.701 33.57 29.976 33.728 13.701 0.1329 25.735-7.1954 28.023-19.433 11.657-48.604-52.669-46.816-57.998-14.295z" style="fill:none;opacity:.999;stop-color:#000000;stroke-linecap:square;stroke-width:.75723;stroke:#000"/>
            <path id="sunRD" d="m131.41 82.828c-18.663 0.75227-33.445-16.314-32.057-31.908 1.1677-13.128 9.8999-23.95 22.786-24.975 51.423-6.5284 43.444 54.879 9.2716 56.883z" style="fill:none;opacity:.999;stop-color:#000000;stroke-linecap:square;stroke-width:.75603;stroke:#000"/>
            <path id="ray1a" d="m129.31 5.3118-0.21883 2.6738 0.4126 5.6475-0.64317 3.1335 0.44939 3.5732" style="fill:none;stroke-linecap:round;stroke-linejoin:round;stroke-width:.75603px;stroke:#000"/>
            <path id="ray1b" d="m129.1 1.0968 0.331 5.726-0.41259 4.5459 0.64317 4.8507-0.44939 2.3734" style="fill:none;stroke-linecap:round;stroke-linejoin:round;stroke-width:.75603px;stroke:#000"/>
            <path id="ray2a" d="m172.5 20.339-2.311 1.5997-5.2891 2.6491-2.5279 2.1973-3.4344 1.519" style="fill:none;stroke-linecap:round;stroke-linejoin:round;stroke-width:.75603px;stroke:#000"/>
            <path id="ray2b" d="m174.62 19.121-4.1663 2.2043-5.4782 3.6745-6.351 3.0172-2.751 2.1136" style="fill:none;stroke-linecap:round;stroke-linejoin:round;stroke-width:.75603px;stroke:#000"/>
            <path id="ray3a" d="m182.86 56.681-7.0732-0.37864-7.1206 0.39666-3.9509-0.61833-4.5053 0.43204" style="fill:none;stroke-linecap:round;stroke-width:.75603px;stroke:#000"/>
            <path id="ray3b" d="m181.38 56.17-4.1079 0.21037-5.7316-0.39666-6.116 0.61833-2.9924-0.43204" style="fill:none;stroke-linecap:round;stroke-linejoin:round;stroke-width:.75603px;stroke:#000"/>
            <path id="ray4a" d="m153.88 78.125 2.4063 2.5951 5.537 4.7698 2.619 3.3558 3.6012 2.8648" style="fill:none;stroke-linecap:round;stroke-linejoin:round;stroke-width:.75603px;stroke:#000"/>
            <path id="ray4b" d="m151.66 76.032 4.3581 3.8932 5.7075 6.0158 6.6534 5.5382 2.8582 3.3311" style="fill:none;stroke-linecap:round;stroke-linejoin:round;stroke-width:.75603px;stroke:#000"/>
            <path id="ray5a" d="m127.14 87.531-0.21883 2.6738 0.4126 5.6475-0.64317 3.1335 0.44939 3.5732" style="fill:none;stroke-linecap:round;stroke-linejoin:round;stroke-width:.75603px;stroke:#000"/>
            <path id="ray5b" d="m127.23 84.357 0.21882 3.2581-0.41259 4.5459 0.64317 4.8507-0.44939 2.3734" style="fill:none;stroke-linecap:round;stroke-linejoin:round;stroke-width:.75603px;stroke:#000"/>
            <path id="ray6a" d="m87.117 90.515 2.311-2.2209 5.2891-4.0709 2.5279-2.8768 3.4344-2.4422" style="fill:none;stroke-linecap:round;stroke-linejoin:round;stroke-width:.75603px;stroke:#000"/>
            <path id="ray6b" d="m84.995 92.303 4.1663-3.3243 5.4782-5.1471 6.351-4.7245 2.751-2.8531" style="fill:none;stroke-linecap:round;stroke-linejoin:round;stroke-width:.75603px;stroke:#000"/>
            <path id="ray7a" d="m90.568 57.308-2.7812 0.21037-5.8743-0.39666-3.2594 0.61833-3.7167-0.43204" style="fill:none;stroke-linecap:round;stroke-linejoin:round;stroke-width:.75603px;stroke:#000"/>
            <path id="ray7b" d="m93 57.332-4.6843-0.21037-6.5358 0.39666-6.9741-0.61833-3.4123 0.43204" style="fill:none;stroke-linecap:round;stroke-linejoin:round;stroke-width:.75603px;stroke:#000"/>
            <path id="ray8a" d="m87.2 19.651 2.311 2.0656 5.2891 3.7155 2.5279 2.707 3.4344 2.2114" style="fill:none;stroke-linecap:round;stroke-linejoin:round;stroke-width:.75603px;stroke:#000"/>
            <path id="ray8b" d="m85.079 18.005 4.1663 3.0443 5.4782 4.779 6.351 4.2976 2.751 2.6682" style="fill:none;stroke-linecap:round;stroke-linejoin:round;stroke-width:.75603px;stroke:#000"/>
        </g>
        <path id="cloud1x" d="m19.331 2.7277c-1.3924 0.0056-2.4899 0.69188-2.6723 1.6712-0.02921 0.15654-0.0341 0.317-0.01459 0.47857-0.12737-0.57321-1.0777-1.0063-2.2081-1.0064-1.2006 3.1e-5 -2.2384 0.85196-2.2755 1.4643-1.4674-1.8178-5.1802-1.6139-5.2601 0.07329-2.6585 0.38315-4.1906 0.94522-4.1901 1.5372 1.07e-4 0.70252 2.1061 1.4331 5.3272 1.682 1.4821 3.0339 4.1303 0.25853 6.5517 0.33414 3.8922 1.2602 5.2193 0.04674 6.6165-0.05128 4.3111-0.30242 5.2626-1.1239 5.2627-1.965 9.9e-5 -0.55087-1.3277-1.0778-3.6749-1.4583 0.2025-1.1853-0.98729-2.3849-2.6676-2.6896-0.26379-0.0478-0.53093-0.07145-0.79482-0.07036z" style="fill:none;opacity:.999;stop-color:#000000;stroke-linecap:round;stroke-linejoin:round;stroke-width:.26458;stroke:#000"/>
        <path id="cloud1a" d="m6.9219 5.6998-1.3766-0.20326s-2.5935-0.27484-3.3466 1.0207c-0.67531 2.0852 4.3485 1.8846 5.3266 1.7895 0.3615-0.03788 1.0346-0.34024 1.0346-0.34024" style="fill:none;stroke-linecap:round;stroke-width:.26458px;stroke:#000"/>
        <path id="cloud1b" d="m21.984 8.2755 1.3766 0.20326s2.5935 0.27484 3.3466-1.0207c0.51995-1.6054-2.3385-1.8559-4.1276-1.8427" style="fill:none;stroke-linecap:round;stroke-width:.265;stroke:#000"/>
        <path id="cloud2x" d="m20.887 18.851c-0.95254 0.0038-1.7032 0.4718-1.828 1.1396-0.01998 0.10674-0.02333 0.21617-0.01 0.32635-0.08713-0.39088-0.73722-0.68619-1.5106-0.68625-0.82131 2.1e-5 -1.5312 0.58097-1.5566 0.99854-1.0038-1.2396-3.5437-1.1005-3.5982 0.04998-1.8186 0.26127-3.2817 0.1522-3.3555 1.1513 0.02091 1.1794 3.0916 2.0528 4.1335 1.0439 1.0139 2.0688 2.808 1.9808 4.4644 2.0324 3.816-0.10311 4.3024-1.7674 5.2601-1.7364 3.8868-0.19246 2.8215-2.0287 0.36964-2.4374 0.13852-0.80826-0.67538-1.6263-1.8248-1.834-0.18045-0.0326-0.36319-0.04873-0.54371-0.04798z" style="fill:none;opacity:.999;stop-color:#000000;stroke-linecap:square;stroke-width:.26458;stroke:#000"/>
        <path id="cloud2a" d="m12.939 22.82s1.1068 2.7412 4.9676 2.3333c1.9804-0.20925 5.5359-2.2117 5.5359-2.2117" style="fill:none;stroke-linecap:round;stroke-linejoin:round;stroke-width:.265;stroke:#000"/>
        <path id="cloud2b" d="m19.483 20.121c0.04962 0.04807 0.01267 0.12638-0.03844 0.15612-0.09144 0.0532-0.17594-0.17509-0.16986-0.28506 0.02209-0.399 0.37204-0.76751 0.72678-0.96232 0.59303-0.32568 1.1133-0.33732 1.6381-0.17781 0.18347 0.05576 0.48333 0.17498 0.43712 0.36903" style="fill:none;stroke-linecap:round;stroke-width:.26458;stroke:#000"/>
        <path id="cloud3x" d="m9.8552 29.604c0.65169 0.0042 1.1653 0.5222 1.2507 1.2613 0.01368 0.11814 0.01595 0.23926 0.0068 0.36121 0.05961-0.43264 0.50436-0.75949 1.0335-0.75956 0.5619 2.4e-5 1.0476 0.64304 1.065 1.1052 0.68677-1.372 2.4244-1.2181 2.4618 0.05532 1.2442 0.28918 1.9613 0.7134 1.9611 1.1602-5.2e-5 0.53024-0.98571 1.0816-2.4932 1.2695-0.69366 2.2898-1.9331 0.19513-3.0664 0.2522-1.8216 0.9511-2.4427 0.03527-3.0967-0.0387-2.0177-0.22826-2.463-0.84828-2.4631-1.483-4.9e-5 -0.41578 0.62141-0.81345 1.72-1.1006-0.09477-0.8946 0.46208-1.8 1.2485-2.03 0.12346-0.03608 0.24849-0.05393 0.37198-0.0531z" style="fill:none;opacity:.999;stop-color:#000000;stroke-linecap:round;stroke-linejoin:round;stroke-width:.26458;stroke:#000"/>
        <path id="cloud3a" d="m8.6148 33.792-0.64429 0.15341s-1.2138 0.20744-1.5662-0.77038c-0.24334-1.2117 1.0944-1.4007 1.9318-1.3908" style="fill:none;stroke-linecap:round;stroke-width:.265;stroke:#000"/>
        <path id="cloud3b" d="m12.036 34.116c1.4173 0.29194 2.4658 1.4536 2.8409 0.2568 0.35538-1.1337-1.2817 0.69302-0.37688 0.0856v0" style="fill:none;stroke-linecap:round;stroke-linejoin:round;stroke-width:.26458px;stroke:#000"/>
        <path id="cloud3c" d="m15.664 31.848c0.99012-0.26705 2.2561 0.32519 2.2782 0.81671 0.04161 0.92655-1.8612 1.1275-2.5605 1.1508" style="fill:none;stroke-linecap:round;stroke-width:.26458px;stroke:#000"/>
        <path id="cloud4x" d="m10.8 42.058c1.0187 0.0059 1.8216 0.72404 1.9551 1.7488 0.0214 0.16381 0.0249 0.33174 0.0107 0.50081 0.0932-0.59986 0.78843-1.0531 1.6155-1.0531 0.87837 3.2e-5 1.6376 0.89157 1.6648 1.5324 1.0736-1.9023 3.7898-1.6889 3.8483 0.0767 1.9449 0.40095 2.4555 0.96428 2.3119 1.9656-0.16285 1.136-1.544 1.8809-3.1438 1.4033s-2.6048 2.1514-4.2392 2.2465c-4.0772 0.23704-4.0461-2.1175-6.161-1.7922-4.1569-0.29536-3.0175-3.1134-0.39532-3.7405-0.14815-1.2404 0.7223-2.4958 1.9516-2.8146 0.19299-0.05002 0.38843-0.07477 0.58149-0.07363z" style="fill:none;opacity:.999;stop-color:#000000;stroke-linecap:round;stroke-linejoin:round;stroke-width:.26458;stroke:#000"/>
        <path id="cloud4a" d="m7.1796 48.013c-3.5121-1.5767-0.15059-3.117 0.35197-3.3814 1.4525-0.76428 1.592-3.247 3.229-3.1288 1.3516 0.09761 2.825 1.6561 2.4048 3.0731" style="fill:none;stroke-linecap:round;stroke-linejoin:round;stroke-width:.26458px;stroke:#000"/>
        <path id="cloud4b" d="m17.78 48.069s4.6814 2.1458 4.9838-1.3521c0.10788-1.2481-1.8505-1.2545-2.8832-1.5354-1.6268-0.44241 1.4301-2.642-2.2969-1.9152" style="fill:none;stroke-linecap:round;stroke-linejoin:round;stroke-width:.26458px;stroke:#000"/>
        <g id="g974" style="fill:url(#linearGradient976)">
            <path id="path972" d="m-3.3569e-6 81.937s64.714-1.9868 153.48 14.1l0.47595 9.7955h-153.96z" style="fill:url(#linearGradient978);stop-color:#000000"/>
        </g>
        <g id="g946" style="fill:url(#linearGradient954)">
            <path id="rect934" d="m-3.3569e-6 97.643s126.43 5.9456 185.21-11.442v19.632h-185.21z" style="fill:url(#linearGradient956);stop-color:#000000"/>
        </g>
    </g>
</svg>
