<?xml version="1.0" encoding="UTF-8" standalone="no"?>
<svg
   xmlns:dc="http://purl.org/dc/elements/1.1/"
   xmlns:cc="http://creativecommons.org/ns#"
   xmlns:rdf="http://www.w3.org/1999/02/22-rdf-syntax-ns#"
   xmlns:svg="http://www.w3.org/2000/svg"
   xmlns="http://www.w3.org/2000/svg"
   xmlns:sodipodi="http://sodipodi.sourceforge.net/DTD/sodipodi-0.dtd"
   xmlns:inkscape="http://www.inkscape.org/namespaces/inkscape"
   sodipodi:docname="sun_shine_1p.svg"
   width="700"
   height="400"
   viewBox="0 0 185.20834 105.83333"
   version="1.1"
   id="svg8"
   inkscape:version="1.0 (4035a4fb49, 2020-05-01)">
  <defs
     id="defs2" />
  <sodipodi:namedview
     inkscape:snap-global="false"
     inkscape:window-maximized="1"
     inkscape:window-y="-9"
     inkscape:window-x="-6"
     inkscape:window-height="1271"
     inkscape:window-width="2400"
     units="px"
     id="base"
     pagecolor="#000000"
     bordercolor="#666666"
     borderopacity="1.0"
     inkscape:pageopacity="0"
     inkscape:pageshadow="2"
     inkscape:zoom="2.3585714"
     inkscape:cx="385.12888"
     inkscape:cy="186.79888"
     inkscape:document-units="px"
     inkscape:current-layer="layer1"
     inkscape:document-rotation="0"
     showgrid="false"
     showborder="true"
     inkscape:showpageshadow="false" />
  <metadata
     id="metadata5">
    <rdf:RDF>
      <cc:Work
         rdf:about="">
        <dc:format>image/svg+xml</dc:format>
        <dc:type
           rdf:resource="http://purl.org/dc/dcmitype/StillImage" />
        <dc:title></dc:title>
      </cc:Work>
    </rdf:RDF>
  </metadata>
  <g
     inkscape:label="Layer 1"
     inkscape:groupmode="layer"
     id="layer1">
    <path
       sodipodi:nodetypes="cscc"
       d="M 127.35925,82.074938 C 108.50208,85.428294 94.469798,70.443826 96.665988,54.674647 98.514833,41.399513 107.87347,29.37326 120.91941,26.553403 c 52.18609,-13.689901 40.9996,48.755872 6.43984,55.521535 z"
       style="opacity:0.999;fill:none;stroke:#ffffff;stroke-width:0.264583;stroke-linecap:square;stroke-opacity:1;stop-color:#000000"
       id="sunLD" />
    <path
       id="sunLU"
       style="opacity:0.999;fill:none;stroke:#ffffff;stroke-width:0.265;stroke-linecap:square;stroke-miterlimit:4;stroke-dasharray:none;stroke-opacity:1;stop-color:#000000"
       d="m 96.706086,50.533821 c -3.48805,18.128946 12.098294,31.619377 28.500874,29.508004 13.80837,-1.777439 26.31767,-10.774714 29.2508,-23.316878 14.23977,-50.1708675 -50.71423,-39.41637 -57.751674,-6.191126 z"
       sodipodi:nodetypes="cscc" />
    <path
       id="sunRD"
       style="opacity:0.999;fill:none;stroke:#ffffff;stroke-width:0.264584;stroke-linecap:square;stroke-opacity:1;stop-color:#000000"
       d="M 131.41409,82.828177 C 112.75127,83.580444 97.96958,66.514449 99.356603,50.919787 100.52426,37.79157 109.25653,26.969693 122.14248,25.945175 c 51.42281,-6.528356 43.44358,54.87922 9.27161,56.883002 z"
       sodipodi:nodetypes="cscc" />
    <path
       sodipodi:nodetypes="cscc"
       d="m 97.548098,48.18057 c -2.556641,17.794019 13.700812,33.570169 29.975562,33.728037 13.70075,0.132899 25.73477,-7.195439 28.02288,-19.433394 C 167.20315,13.870736 102.87773,15.659054 97.548098,48.18057 Z"
       style="opacity:0.999;fill:none;stroke:#ffffff;stroke-width:0.264999;stroke-linecap:square;stroke-miterlimit:4;stroke-dasharray:none;stroke-opacity:1;stop-color:#000000"
       id="sunRU" />
    <g
       id="ray1">
      <path
         sodipodi:nodetypes="ccccc"
         id="path860"
         d="m 129.31045,5.3117988 -0.21883,2.6738175 0.4126,5.6474627 -0.64317,3.133494 0.44939,3.573214"
         style="fill:none;stroke:#ffffff;stroke-width:0.264584px;stroke-linecap:butt;stroke-linejoin:miter;stroke-opacity:1" />
      <path
         style="fill:none;stroke:#ffffff;stroke-width:0.264584px;stroke-linecap:butt;stroke-linejoin:miter;stroke-opacity:1"
         d="m 129.20862,3.5647748 0.21882,3.2580637 -0.41259,4.5458585 0.64317,4.850735 -0.44939,2.37336"
         id="path862"
         sodipodi:nodetypes="ccccc" />
    </g>
    <g
       style="stroke:#ffffff;stroke-width:0.829973;stroke-opacity:1"
       transform="matrix(1.1901924,0,0,1.219705,-13.577511,-22.533599)"
       id="rey2">
      <path
         style="fill:none;stroke:#ffffff;stroke-width:0.219598px;stroke-linecap:butt;stroke-linejoin:miter;stroke-opacity:1"
         d="m 156.34182,35.150017 -1.94169,1.311537 -4.44394,2.171908 -2.12394,1.801487 -2.88554,1.24539"
         id="path884"
         sodipodi:nodetypes="ccccc"
         inkscape:transform-center-x="-0.18017893"
         inkscape:transform-center-y="5.9260647" />
      <path
         sodipodi:nodetypes="ccccc"
         id="path886"
         d="m 158.12442,34.151631 -3.50051,1.807277 -4.60277,3.012582 -5.33607,2.473696 -2.31137,1.732855"
         style="fill:none;stroke:#ffffff;stroke-width:0.219598px;stroke-linecap:butt;stroke-linejoin:miter;stroke-opacity:1"
         inkscape:transform-center-x="0.21502609"
         inkscape:transform-center-y="6.1757227" />
    </g>
    <path
       sodipodi:nodetypes="ccccc"
       id="path866"
       d="m 179.16099,56.512987 -3.37128,-0.210372 -7.12058,0.396659 -3.95086,-0.618332 -4.50527,0.432036"
       style="fill:none;stroke:#ffffff;stroke-width:0.264584px;stroke-linecap:butt;stroke-linejoin:miter;stroke-opacity:1" />
    <g
       id="g951">
      <path
         sodipodi:nodetypes="ccccc"
         id="path925"
         d="m 182.56008,56.394665 -4.10792,0.210371 -5.73163,-0.396659 -6.11603,0.618332 -2.99244,-0.432035"
         style="fill:none;stroke:#ffffff;stroke-width:0.264584px;stroke-linecap:butt;stroke-linejoin:miter;stroke-opacity:1" />
    </g>
    <g
       style="stroke:#ffffff;stroke-width:0.746459;stroke-opacity:1"
       transform="matrix(-1.2634966,-0.38446462,-0.03586761,1.4094968,352.67637,88.689119)"
       id="rey4">
      <path
         inkscape:transform-center-y="5.9260647"
         inkscape:transform-center-x="-0.18017893"
         sodipodi:nodetypes="ccccc"
         id="path911"
         d="m 156.34182,35.150017 -1.94169,1.311537 -4.44394,2.171908 -2.12394,1.801487 -2.88554,1.24539"
         style="fill:none;stroke:#ffffff;stroke-width:0.197501px;stroke-linecap:butt;stroke-linejoin:miter;stroke-opacity:1" />
      <path
         sodipodi:nodetypes="ccccc"
         id="path915"
         d="m 158.12442,34.151631 -3.50051,1.807277 -4.60277,3.012582 -5.33607,2.473696 -2.31137,1.732855"
         style="fill:none;stroke:#ffffff;stroke-width:0.197501px;stroke-linecap:butt;stroke-linejoin:miter;stroke-opacity:1"
         inkscape:transform-center-x="0.21502609"
         inkscape:transform-center-y="6.1757227" />
    </g>
    <g
       style="stroke:#ffffff;stroke-width:0.313113;stroke-opacity:1"
       transform="matrix(3.2572426,0,0,3.1314618,-161.48932,-62.127874)"
       id="rey5">
      <path
         style="fill:none;stroke:#ffffff;stroke-width:0.0828446px;stroke-linecap:butt;stroke-linejoin:miter;stroke-opacity:1"
         d="m 88.286361,47.792034 -0.06718,0.853856 0.126669,1.803459 -0.197458,1.000649 0.137966,1.141069"
         id="path852"
         sodipodi:nodetypes="ccccc" />
      <path
         sodipodi:nodetypes="ccccc"
         id="path854"
         d="m 88.41756,47.065156 0.06718,1.040429 -0.126669,1.451673 0.197458,1.549032 -0.137966,0.757908"
         style="fill:none;stroke:#ffffff;stroke-width:0.0828446px;stroke-linecap:butt;stroke-linejoin:miter;stroke-opacity:1" />
    </g>
    <g
       style="stroke:#ffffff;stroke-width:0.829973;stroke-opacity:1"
       transform="matrix(-1.1901924,0.31995203,0,-1.219705,273.19377,83.365957)"
       id="rey6">
      <path
         inkscape:transform-center-y="5.9260647"
         inkscape:transform-center-x="-0.18017893"
         sodipodi:nodetypes="ccccc"
         id="path895"
         d="m 156.34182,35.150017 -1.94169,1.311537 -4.44394,2.171908 -2.12394,1.801487 -2.88554,1.24539"
         style="fill:none;stroke:#ffffff;stroke-width:0.219598px;stroke-linecap:butt;stroke-linejoin:miter;stroke-opacity:1" />
      <path
         sodipodi:nodetypes="ccccc"
         id="path899"
         d="m 158.12442,34.151631 -3.50051,1.807277 -4.60277,3.012582 -5.33607,2.473696 -2.31137,1.732855"
         style="fill:none;stroke:#ffffff;stroke-width:0.219598px;stroke-linecap:butt;stroke-linejoin:miter;stroke-opacity:1"
         inkscape:transform-center-x="0.21502609"
         inkscape:transform-center-y="6.1757227" />
    </g>
    <g
       style="stroke:#ffffff;stroke-opacity:1"
       id="rey7">
      <path
         sodipodi:nodetypes="ccccc"
         id="path872"
         d="m 90.568062,57.307683 -2.781215,0.210372 -5.874304,-0.396659 -3.259356,0.618332 -3.716739,-0.432035"
         style="fill:none;stroke:#ffffff;stroke-width:0.264584px;stroke-linecap:butt;stroke-linejoin:miter;stroke-opacity:1" />
      <path
         style="fill:none;stroke:#ffffff;stroke-width:0.264584px;stroke-linecap:butt;stroke-linejoin:miter;stroke-opacity:1"
         d="m 92.999673,57.332216 -4.684282,-0.210372 -6.535809,0.39666 -6.974146,-0.618333 -3.412298,0.432035"
         id="path874"
         sodipodi:nodetypes="ccccc" />
    </g>
    <g
       inkscape:transform-center-y="1.4355934"
       inkscape:transform-center-x="0.8024481"
       style="stroke:#ffffff;stroke-width:0.829973;stroke-opacity:1"
       id="rey8"
       transform="matrix(-1.1901924,-0.23996402,0,1.219705,273.27703,14.294588)">
      <path
         style="fill:none;stroke:#ffffff;stroke-width:0.219598px;stroke-linecap:butt;stroke-linejoin:miter;stroke-opacity:1"
         d="m 156.34182,35.150017 -1.94169,1.311537 -4.44394,2.171908 -2.12394,1.801487 -2.88554,1.24539"
         id="path903"
         sodipodi:nodetypes="ccccc"
         inkscape:transform-center-x="-0.18017893"
         inkscape:transform-center-y="5.9260647" />
      <path
         inkscape:transform-center-y="6.1757227"
         inkscape:transform-center-x="0.21502609"
         style="fill:none;stroke:#ffffff;stroke-width:0.219598px;stroke-linecap:butt;stroke-linejoin:miter;stroke-opacity:1"
         d="m 158.12442,34.151631 -3.50051,1.807277 -4.60277,3.012582 -5.33607,2.473696 -2.31137,1.732855"
         id="path907"
         sodipodi:nodetypes="ccccc" />
    </g>
  </g>
</svg>
