<?xml version="1.0" encoding="UTF-8"?>
<svg id="svg8" width="700" height="400" version="1.1" viewBox="0 0 185.21 105.83" xmlns="http://www.w3.org/2000/svg">
    <g id="layer1" fill="none" stroke="#ffffff">
        <path id="sunLU" d="m96.706 50.534c-3.488 18.129 12.098 31.619 28.501 29.508 13.808-1.7774 26.318-10.775 29.251-23.317 14.24-50.171-50.714-39.416-57.752-6.1911z" opacity=".999" stop-color="#000000" stroke-linecap="square" stroke-width=".265"/>
        <path id="sunLD" d="m127.36 82.075c-18.857 3.3534-32.889-11.631-30.693-27.4 1.8488-13.275 11.207-25.301 24.253-28.121 52.186-13.69 41 48.756 6.4398 55.522z" opacity=".999" stop-color="#000000" stroke-linecap="square" stroke-width=".26458"/>
        <path id="sunRU" d="m97.548 48.181c-2.5566 17.794 13.701 33.57 29.976 33.728 13.701 0.1329 25.735-7.1954 28.023-19.433 11.657-48.604-52.669-46.816-57.998-14.295z" opacity=".999" stop-color="#000000" stroke-linecap="square" stroke-width=".265"/>
        <path id="sunRD" d="m131.41 82.828c-18.663 0.75227-33.445-16.314-32.057-31.908 1.1677-13.128 9.8999-23.95 22.786-24.975 51.423-6.5284 43.444 54.879 9.2716 56.883z" opacity=".999" stop-color="#000000" stroke-linecap="square" stroke-width=".26458"/>
        <path id="ray1a" d="m129.31 5.3118-0.21883 2.6738 0.4126 5.6475-0.64317 3.1335 0.44939 3.5732" stroke-linecap="round" stroke-linejoin="round" stroke-width=".26458px"/>
        <path id="ray1b" d="m129.1 1.0968 0.331 5.726-0.41259 4.5459 0.64317 4.8507-0.44939 2.3734" stroke-linecap="round" stroke-linejoin="round" stroke-width=".26458px"/>
        <path id="ray2a" d="m172.5 20.339-2.311 1.5997-5.2891 2.6491-2.5279 2.1973-3.4344 1.519" stroke-linecap="round" stroke-linejoin="round" stroke-width=".26458px"/>
        <path id="ray2b" d="m174.62 19.121-4.1663 2.2043-5.4782 3.6745-6.351 3.0172-2.751 2.1136" stroke-linecap="round" stroke-linejoin="round" stroke-width=".26458px"/>
        <path id="ray3a" d="m182.86 56.681-7.0732-0.37864-7.1206 0.39666-3.9509-0.61833-4.5053 0.43204" stroke-linecap="round" stroke-width=".26458px"/>
        <path id="ray3b" d="m181.38 56.17-4.1079 0.21037-5.7316-0.39666-6.116 0.61833-2.9924-0.43204" stroke-linecap="round" stroke-linejoin="round" stroke-width=".26458px"/>
        <path id="ray4a" d="m153.88 78.125 2.4063 2.5951 5.537 4.7698 2.619 3.3558 3.6012 2.8648" stroke-linecap="round" stroke-linejoin="round" stroke-width=".26458px"/>
        <path id="ray4b" d="m151.66 76.032 4.3581 3.8932 5.7075 6.0158 6.6534 5.5382 2.8582 3.3311" stroke-linecap="round" stroke-linejoin="round" stroke-width=".26458px"/>
        <path id="ray5a" d="m127.14 87.531-0.21883 2.6738 0.4126 5.6475-0.64317 3.1335 0.44939 3.5732" stroke-linecap="round" stroke-linejoin="round" stroke-width=".26458px"/>
        <path id="ray5b" d="m127.23 84.357 0.21882 3.2581-0.41259 4.5459 0.64317 4.8507-0.44939 2.3734" stroke-linecap="round" stroke-linejoin="round" stroke-width=".26458px"/>
        <path id="ray6a" d="m87.117 90.515 2.311-2.2209 5.2891-4.0709 2.5279-2.8768 3.4344-2.4422" stroke-linecap="round" stroke-linejoin="round" stroke-width=".26458px"/>
        <path id="ray6b" d="m84.995 92.303 4.1663-3.3243 5.4782-5.1471 6.351-4.7245 2.751-2.8531" stroke-linecap="round" stroke-linejoin="round" stroke-width=".26458px"/>
        <path id="ray7a" d="m90.568 57.308-2.7812 0.21037-5.8743-0.39666-3.2594 0.61833-3.7167-0.43204" stroke-linecap="round" stroke-linejoin="round" stroke-width=".26458px"/>
        <path id="ray7b" d="m93 57.332-4.6843-0.21037-6.5358 0.39666-6.9741-0.61833-3.4123 0.43204" stroke-linecap="round" stroke-linejoin="round" stroke-width=".26458px"/>
        <path id="ray8a" d="m87.2 19.651 2.311 2.0656 5.2891 3.7155 2.5279 2.707 3.4344 2.2114" stroke-linecap="round" stroke-linejoin="round" stroke-width=".26458px"/>
        <path id="ray8b" d="m85.079 18.005 4.1663 3.0443 5.4782 4.779 6.351 4.2976 2.751 2.6682" stroke-linecap="round" stroke-linejoin="round" stroke-width=".26458px"/>
        <path id="cloud1x" transform="scale(.26458)" d="m207.04 109.95c-11.555 0.0472-20.662 5.8197-22.176 14.057-0.24237 1.3167-0.28298 2.6664-0.1211 4.0254-1.057-4.8215-8.9429-8.4644-18.324-8.4648-9.9632 2.6e-4 -18.575 7.1662-18.883 12.317-12.177-15.29-42.987-13.575-43.65 0.61648-22.061 3.2228-34.775 7.9506-34.771 12.93 8.83e-4 5.9092 17.477 12.054 44.207 14.148 12.299 25.519 34.275 2.1746 54.369 2.8106 32.299 10.6 43.312 0.39312 54.906-0.43133 35.775-2.5438 43.671-9.4539 43.672-16.528 8.2e-4 -4.6336-11.018-9.0655-30.496-12.266 1.6804-9.97-8.1929-20.06-22.137-22.623-2.189-0.40209-4.4059-0.601-6.5957-0.59179z" opacity=".999" stop-color="#000000" stroke-linecap="round" stroke-linejoin="round"/>
        <path id="cloud1a" d="m27.534 35.705-3.0225-0.45236s-5.6942-0.61166-7.3478 2.2716c-1.4827 4.6406 9.5475 4.1941 11.695 3.9824 0.7937-0.08431 2.2716-0.75721 2.2716-0.75721" stroke-linecap="round" stroke-width=".26458px"/>
        <path id="cloud1b" d="m60.604 41.437 3.0225 0.45236s5.6942 0.61166 7.3478-2.2716c1.1416-3.5729-5.1344-4.1303-9.0626-4.101" stroke-linecap="round" stroke-width=".265"/>
        <path id="cloud2x" d="m69.215 73.035c-3.0573 0.01249-5.4667 1.5398-5.8673 3.7192-0.06413 0.34837-0.07487 0.7055-0.03204 1.0651-0.27966-1.2757-2.3662-2.2395-4.8483-2.2397-2.6361 6.9e-5 -4.9145 1.8961-4.9962 3.2589-3.2219-4.0455-11.374-3.5917-11.549 0.16311-5.8369 0.85269-10.533 0.49672-10.77 3.7575 0.06711 3.8492 9.9229 6.6998 13.267 3.4069 3.2541 6.752 9.0125 6.4648 14.329 6.6331 12.248-0.33653 13.809-5.7683 16.883-5.667 12.475-0.62813 9.0558-6.6211 1.1864-7.9548 0.44461-2.6379-2.1677-5.3076-5.857-5.9857-0.57919-0.10639-1.1657-0.15902-1.7451-0.15658z" opacity=".999" stop-color="#000000" stroke-linecap="square" stroke-width=".26458"/>
        <path id="cloud2a" d="m43.707 85.986s3.5524 8.9464 15.944 7.615c6.3563-0.68293 17.768-7.2184 17.768-7.2184" stroke-linecap="round" stroke-linejoin="round" stroke-width=".265"/>
        <path id="cloud2b" d="m64.709 77.178c0.15928 0.15689 0.04067 0.41246-0.12339 0.50952-0.29348 0.17362-0.56471-0.57144-0.54517-0.93035 0.07089-1.3022 1.1941-2.5049 2.3327-3.1407 1.9034-1.0629 3.5732-1.1009 5.2578-0.58032 0.58887 0.18198 1.5513 0.57109 1.403 1.2044" stroke-linecap="round" stroke-width=".26458"/>
        <path id="cloud3x" d="m151.98 2.1204c1.8914 0.01249 3.382 1.5398 3.6299 3.7192 0.0397 0.34837 0.0463 0.7055 0.0198 1.0651 0.17301-1.2757 1.4638-2.2395 2.9994-2.2397 1.6308 6.9e-5 3.0404 1.8961 3.0909 3.2589 1.9932-4.0455 7.0364-3.5917 7.1449 0.16311 3.611 0.85269 5.6922 2.1036 5.6916 3.421-1.5e-4 1.5635-2.8608 3.1892-7.2361 3.7434-2.0132 6.752-5.6103 0.57537-8.8995 0.74364-5.2869 2.8045-7.0895 0.10401-8.9874-0.11412-5.8558-0.67305-7.1483-2.5013-7.1485-4.3729-1.4e-4 -1.226 1.8035-2.3986 4.9918-3.2453-0.27506-2.6379 1.3411-5.3076 3.6235-5.9857 0.35832-0.10639 0.72119-0.15902 1.0796-0.15658z" opacity=".999" stop-color="#000000" stroke-linecap="round" stroke-linejoin="round" stroke-width=".26458"/>
        <path id="cloud3a" d="m148.38 14.467-1.8699 0.45236s-3.5228 0.61166-4.5457-2.2716c-0.70624-3.5729 3.1764-4.1303 5.6067-4.101" stroke-linecap="round" stroke-width=".265"/>
        <path id="cloud3b" d="m158.31 15.425c4.1133 0.86082 7.1564 4.2861 8.2452 0.75722 1.0314-3.3429-3.7198 2.0435-1.0938 0.2524v0" stroke-linecap="round" stroke-linejoin="round" stroke-width=".26458px"/>
        <path id="cloud3c" d="m168.84 8.735c2.8736-0.78745 6.5479 0.95889 6.612 2.4082 0.12076 2.7321-5.4018 3.3247-7.4313 3.3934" stroke-linecap="round" stroke-width=".26458px"/>
        <path id="cloud4x" d="m165.16 71.449c1.0187 0.0059 1.8216 0.72404 1.9551 1.7488 0.0214 0.16381 0.0249 0.33174 0.0107 0.50081 0.0932-0.59986 0.78843-1.0531 1.6155-1.0531 0.87837 3.2e-5 1.6376 0.89157 1.6648 1.5324 1.0736-1.9023 3.7898-1.6889 3.8483 0.0767 1.9449 0.40095 2.4555 0.96428 2.3119 1.9656-0.16285 1.136-1.544 1.8809-3.1438 1.4033s-2.6048 2.1514-4.2392 2.2465c-4.0772 0.23704-4.0461-2.1175-6.161-1.7922-4.1569-0.29536-3.0175-3.1134-0.39532-3.7405-0.14815-1.2404 0.7223-2.4958 1.9516-2.8146 0.19299-0.05002 0.38843-0.07477 0.58149-0.07363z" opacity=".999" stop-color="#000000" stroke-linecap="round" stroke-linejoin="round" stroke-width=".26458"/>
        <path id="cloud4a" d="m161.54 77.404c-3.5121-1.5767-0.15059-3.117 0.35197-3.3814 1.4525-0.76428 1.592-3.247 3.229-3.1288 1.3516 0.09761 2.825 1.6561 2.4048 3.0731" stroke-linecap="round" stroke-linejoin="round" stroke-width=".26458px"/>
        <path id="cloud4b" d="m172.14 77.46s4.6814 2.1458 4.9838-1.3521c0.10788-1.2481-1.8505-1.2545-2.8832-1.5354-1.6268-0.44241 1.4301-2.642-2.2969-1.9152" stroke-linecap="round" stroke-linejoin="round" stroke-width=".26458px"/>
    </g>
</svg>
